; Version : LOCAL
; Job     : G:\2014\ELFES\PCB\PCB\PCB.pcb
; User    : LUTIN2:Alexis
; Date    : Fri Jun 20 01:17:16 2014
; Format  : 3.3 / Absolute / MM / Leading
; Contents: Thru / Drill / Plated
M48
METRIC,TZ
FMAT,2
ICI,OFF
T04C0.3000
T01C0.8000
T03C0.9000
T02C1.0000
%
M71
G90
G93X0Y0
T04
X16038Y1430
X8384Y1184
X6296Y3067
X14114Y3354
X17512Y4775
X29809Y6458
X26243Y6427
X24227Y6837
X20991Y6628
X15915Y6055
X2531Y7242
X5641Y9657
X12032Y9623
X14446Y9793
X29851Y9959
X38960Y9125
X28690Y10738
X20417Y10348
X2653Y12359
X9177Y13810
X18518Y14517
X24879Y14734
X35779Y13927
X41334Y12891
X46164Y16697
X20131Y17189
X16448Y16657
X10267Y15347
X3718Y20259
X17716Y19208
X35972Y18908
X43258Y18949
X44772Y21732
X41457Y21609
X26189Y20463
X24104Y21341
X12964Y21596
X5887Y21241
X4045Y23861
X12815Y25095
X36136Y23738
X48579Y25662
X41334Y27135
X27254Y26276
X25116Y26004
X4905Y29509
X36013Y28363
X31429Y32006
X8957Y34871
X10799Y34257
X35235Y35854
X25085Y35575
X6010Y38924
X6992Y39660
X10308Y38432
X13296Y38637
X43504Y40356
X1937Y44593
X6235Y44408
X39267Y44347
X47065Y43979
T01
X8076Y4368
X4476Y7968
X8076
X22037Y8312
Y10852
T03
X45262Y31958
X42722
X41462Y33228
X44002
X6068Y40937
X4808Y42207
X3528Y40937
X2268Y42207
T02
X25054Y27935
X22514
X19974
X17434
Y30475
X19974
X22514
X25054
T00
M30
