*
G04 Job   : G:\2014\ELFES\PCB\PCB\PCB.pcb*
G04 User  : LUTIN2:Alexis*
G04 Layer : EtchLayerTop.gdo*
G04 Date  : Fri Jun 20 01:19:52 2014*
G04 Mentor Graphics Example Gerber Output Definition*
%ICAS*%
%MOIN*%
%FSLAX24Y24*%
%OFA0.0000B0.0000*%
G90*
G74*
%AMVB_RECTANGLE*
21,1,$1,$2,0,0,$3*
%
%ADD13C,0.00984*%
%ADD10C,0.01000*%
%ADD12C,0.01575*%
%ADD11C,0.01969*%
%ADD15C,0.02362*%
%ADD16C,0.02756*%
%ADD14C,0.03150*%
%ADD18C,0.05118*%
%ADD29C,0.05512*%
%ADD28C,0.05906*%
%ADD20VB_RECTANGLE,0.03937X0.03937X0.00000*%
%ADD27VB_RECTANGLE,0.05906X0.05906X180.00000*%
%ADD22VB_RECTANGLE,0.02638X0.05906X270.00000*%
%ADD24VB_RECTANGLE,0.03150X0.12205X180.00000*%
%ADD17VB_RECTANGLE,0.03937X0.02362X180.00000*%
%ADD70VB_RECTANGLE,0.03937X0.02362X270.00000*%
%ADD25VB_RECTANGLE,0.05906X0.01181X0.00000*%
%ADD26VB_RECTANGLE,0.05906X0.01181X90.00000*%
%ADD23VB_RECTANGLE,0.05906X0.12205X90.00000*%
%ADD71VB_RECTANGLE,0.05906X0.14961X270.00000*%
%ADD19VB_RECTANGLE,0.07874X0.11811X0.00000*%
%ADD21VB_RECTANGLE,0.07874X0.11811X270.00000*%
G01*
G36*
X118Y17953D02*
G02X157Y17992I39D01*
G01X282*
Y14194*
G03X434Y13987I217*
G01Y5732*
G03X493Y5673I59*
G01X1447*
Y3137*
G03X1535Y2919I315*
G02X1546Y2892I29J27*
G01Y2719*
G03X1609Y2566I216*
G01X1917Y2257*
G03X2070Y2194I153J154*
G01X2805*
Y1720*
G03X3179Y1346I374*
X3553Y1720J374*
X3179Y2094I374*
X2805Y1720J374*
G01Y2194*
X3462*
G02X3490Y2182J39*
G01X3544Y2129*
G03X3697Y2065I153J153*
G01X4409*
Y1612*
G03X4468Y1553I59*
G01X4862*
G03X4919Y1597J59*
G02X4947Y1625I38J10*
G03X4997Y1654I26J105*
G01X5104Y1760*
G02X5131Y1772I27J28*
G01X5295*
G02X5334Y1739J40*
G03X5392Y1689I58J9*
G01X5983*
G03X6042Y1748J59*
G01Y2012*
G03X5983Y2071I59*
G01X5392*
G03X5334Y2021J59*
G02X5295Y1988I39J7*
G01X5070*
G03X4994Y1957J108*
G01X4941Y1904*
G02X4914Y1893I27J28*
X4893Y1899J39*
G03X4862Y1908I31J50*
G01X4468*
G03X4409Y1849J59*
G01Y2065*
X4665*
G03X4780Y2098J217*
G02X4801Y2104I21J33*
G01X4862*
G03X4921Y2164J60*
G01Y2400*
G03X4869Y2458I59*
G02X4834Y2497I4J39*
X4843Y2523I39*
G03X4875Y2611I106J88*
G01Y2650*
G02X4891Y2682I39*
G03X4914Y2729I36J47*
G01Y2748*
G02X4954Y2788I40*
G01X5028*
G02X5054Y2778J40*
G03X5146Y2742I92J102*
G01X5305*
G02X5313Y2741J39*
G01Y2248*
G03X5392Y2169I79*
G01X5983*
G03X6061Y2248J79*
G01Y2512*
G03X5983Y2591I78*
G01X5392*
G03X5313Y2512J79*
G01Y2741*
G02X5340Y2721I8J38*
G03X5392Y2689I52J27*
G01X5983*
G03X6042Y2748J59*
G01Y3012*
G03X5983Y3071I59*
G01X5864*
G02X5825Y3110J39*
G01Y3150*
G02X5864Y3189I39*
G01X5983*
G03X6042Y3248J59*
G01Y3512*
G03X5983Y3571I59*
G01X5835*
G02X5796Y3610J39*
G01Y3697*
G02X5808Y3726I39*
G03X5864Y3855I121J129*
X5687Y4033I177*
X5510Y3855J178*
X5566Y3726I177*
G02X5579Y3697I26J29*
G01Y3610*
G02X5540Y3571I39*
G01X5392*
G03X5333Y3512J59*
G01Y3248*
G03X5392Y3189I59*
G01X5510*
G02X5549Y3150J39*
G01Y3110*
G02X5510Y3071I39*
G01X5392*
G03X5340Y3039J59*
G02X5305Y3018I35J18*
G01X5219*
G02X5193Y3028J39*
G03X5101Y3063I92J102*
G01X4954*
G02X4914Y3103J40*
G01Y3122*
G03X4891Y3170I59*
G02X4875Y3201I23J31*
G01Y3664*
G02X4882Y3687I39*
G03X4914Y3789I145J102*
X4737Y3966I177*
X4560Y3789J177*
X4592Y3687I177*
G02X4599Y3664I32J23*
G01Y3201*
G02X4584Y3170I39*
G03X4560Y3122I35J48*
G01Y2729*
G03X4575Y2689I59*
G02X4585Y2663I29J26*
X4580Y2642I39*
G03X4577Y2638I118J71*
G02X4571Y2629I34J19*
G01X4567Y2626*
G03X4527Y2535I98J98*
G02X4488Y2498I39J3*
G01X3803*
G02X3775Y2510J40*
G01X3721Y2564*
G03X3568Y2627I153J153*
G01X2176*
G02X2149Y2639J39*
G01X1990Y2797*
G02X1979Y2825I28J28*
G01Y2892*
G02X1990Y2919I39*
G03X2077Y3137I228J218*
X1762Y3452I315*
X1447Y3137J315*
G01Y5673*
X1498*
G02X1537Y5633J40*
X1536Y5622I39*
G03X1513Y5474I472J148*
X2008Y4979I495*
X2504Y5474J495*
X2008Y5969I496*
X1680Y5845J495*
G02X1654Y5835I26J29*
X1615Y5874J39*
G01Y6322*
G03X1556Y6381I59*
G01X493*
G03X434Y6322J59*
G01Y6732*
G03X493Y6673I59*
G01X1713*
G03X1772Y6732J59*
G01Y6880*
G02X1812Y6919I40*
G01X2224*
G02X2263Y6880J39*
X2256Y6857I39*
G03X2245Y6822I48J35*
G01Y6232*
G03X2304Y6173I59*
G01X2938*
Y4417*
G03X3016Y4339I78*
G01X3410*
G03X3489Y4417J78*
G01Y4654*
G03X3410Y4732I79*
G01X3016*
G03X2938Y4654J78*
G01Y6173*
X3524*
G03X3583Y6232J59*
G01Y6380*
G02X3623Y6419I40*
G01X4713*
G03X4790Y6451J108*
G01X4804Y6465*
G02X4832Y6476I28J28*
G01X5310*
G02X5350Y6437J39*
G01Y6329*
G03X5363Y6284I78*
G02X5370Y6262I32J22*
Y6257I39*
G03X5369Y6250I58J7*
G01Y6132*
G03X5374Y6108I59*
G02X5378Y6092I36J16*
X5374Y6077I40*
G03X5369Y6053I54J24*
G01Y5935*
G03X5370Y5928I59*
G02Y5923I39J5*
X5363Y5901I39*
G03X5350Y5856I65J45*
G01Y5748*
G02X5310Y5709I40*
G01X5191*
G03X5154Y5702J109*
G02X5141Y5700I13J37*
G01X5038*
G02X5001Y5727J39*
G03X4945Y5769I56J17*
G01X4551*
G03X4504Y5745J59*
G02X4472Y5729I32J24*
G01X4280*
G03X4183Y5689J137*
G01X4080Y5586*
G02X4052Y5575I28J28*
G01X3737*
G02X3715Y5582J39*
G03X3613Y5614I102J145*
X3436Y5437J177*
X3613Y5260I177*
X3715Y5292J177*
G02X3737Y5299I22J32*
G01X4126*
G03X4223Y5339J138*
G01X4326Y5442*
G02X4354Y5454I28J28*
G01X4472*
Y4922*
G03X4551Y4844I79*
G01X4945*
G03X5023Y4922J78*
G01Y5159*
G03X4945Y5237I78*
G01X4551*
G03X4472Y5159J78*
G01Y5454*
G02X4504Y5438J40*
G03X4551Y5414I47J36*
G01X4945*
G03X5001Y5456J60*
G02X5038Y5483I37J12*
G01X5182*
G03X5219Y5490J109*
G02X5232Y5492I13J37*
G01X5385*
G02X5403Y5488J39*
G03X5428Y5482I25J53*
G01X5576*
G02X5615Y5443J39*
G01Y5413*
G03X5647Y5337I109*
G01X5972Y5012*
G03X6048Y4980I76J77*
G01X6078*
G02X6117Y4941J39*
G01Y4793*
G03X6176Y4734I59*
G01X6285*
G02X6324Y4695J39*
G01Y4584*
G02X6313Y4556I39*
G01X6239Y4483*
G02X6212Y4471I27J28*
G01X4157*
G03X4080Y4439J108*
G01X3745Y4104*
G02X3717Y4093I28J28*
G01X3504*
G02X3467Y4120J39*
G03X3410Y4162I57J18*
G01X3350*
G02X3329Y4168J39*
G03X3213Y4201I116J184*
X3098Y4168J217*
G02X3077Y4162I21J33*
G01X3016*
G03X2957Y4102J60*
G01Y3866*
G03X2972Y3827I59*
G02X2982Y3801I29J26*
X2979Y3786I39*
G03X2963Y3704I200J82*
G01Y3382*
G02X2952Y3355I39*
G03X2864Y3137I227J218*
X3179Y2822I315*
X3494Y3137J315*
X3407Y3355I315*
G02X3396Y3382I28J27*
G01Y3611*
G02X3401Y3631I39*
G03X3430Y3738I188J107*
G01Y3788*
G02X3446Y3819I39*
G03X3467Y3849I36J47*
G02X3504Y3876I37J12*
G01X3778*
G03X3855Y3908J108*
G01X3989Y4042*
Y2729*
G03X4068Y2650I79*
G01X4304*
G03X4383Y2729J79*
G01Y3122*
G03X4304Y3201I79*
G01X4068*
G03X3989Y3122J79*
G01Y4042*
X4190Y4243*
G02X4218Y4255I28J28*
G01X6273*
G03X6349Y4286J108*
G01X6509Y4446*
G03X6541Y4523I77J77*
G01Y4695*
G02X6580Y4734I39*
G01X6646*
Y4066*
G03X6724Y3988I78*
G01X6961*
G03X7039Y4066J78*
G01Y4460*
G03X6961Y4539I78*
G01X6724*
G03X6646Y4460J79*
G01Y4734*
X6688*
G03X6712Y4739J59*
G02X6728Y4742I16J36*
X6743Y4739J39*
G03X6767Y4734I24J54*
G01X6885*
G03X6909Y4739J59*
G02X6924Y4742I15J36*
X6940Y4739J39*
G03X6964Y4734I24J54*
G01X7082*
G03X7106Y4739J59*
G02X7121Y4742I15J36*
X7137Y4739J39*
G03X7161Y4734I24J54*
G01X7256*
G02X7295Y4695J39*
X7293Y4681I39*
G03X7285Y4643I101J38*
G01Y4554*
G02X7258Y4516I39*
G03X7217Y4460I18J56*
G01Y4066*
G03X7276Y4007I59*
G01X7512*
G03X7571Y4066J59*
G01Y4460*
G03X7530Y4516I59*
G02X7502Y4554I11J38*
G01Y4586*
G02X7508Y4607I39*
G03X7525Y4665I91J58*
G01Y4675*
G02X7564Y4715I39*
G01X7672*
G03X7717Y4728J78*
G02X7739Y4735I22J32*
X7744J39*
G03X7751Y4734I7J58*
G01X7869*
G03X7893Y4739J59*
G02X7909Y4742I16J36*
X7924Y4739J39*
G03X7948Y4734I24J54*
G01X8066*
G03X8090Y4739J59*
G02X8106Y4742I16J36*
X8121Y4739J39*
G03X8145Y4734I24J54*
G01X8263*
G03X8287Y4739J59*
G02X8302Y4742I15J36*
X8318Y4739J39*
G03X8342Y4734I24J54*
G01X8361*
Y3272*
G03X8534Y2991I315*
G01Y2539*
G03X8613Y2460I79*
G01X9006*
G03X9085Y2539J79*
G01Y2775*
G03X9006Y2854I79*
G01X8613*
G03X8534Y2775J79*
G01Y2991*
G03X8676Y2957I142J281*
X8991Y3272J315*
X8676Y3587I315*
X8361Y3272J315*
G01Y4272*
G03X8676Y3957I315*
X8694Y3958J315*
G02X8696I2J39*
X8724Y3946J39*
G01X8864Y3806*
G03X9003Y3748I139J139*
G01X9125*
Y3276*
G03X9203Y3197I78*
G01X9597*
G03X9676Y3276J79*
G01Y3512*
G03X9597Y3591I79*
G01X9203*
G03X9125Y3512J79*
G01Y3748*
X9400*
G03X9479Y3765J197*
G02X9495Y3768I16J36*
G01X9597*
G03X9656Y3827J59*
G01Y4063*
G03X9597Y4122I59*
G01X9495*
G02X9479Y4126J40*
G03X9400Y4142I79J181*
G01X9101*
G02X9073Y4154J40*
G01X9002Y4225*
G02X8990Y4253I28J28*
Y4255I40*
G03X8991Y4272I314J17*
X8676Y4587I315*
X8361Y4272J315*
G01Y4734*
X8460*
G03X8519Y4793J59*
G01Y4941*
G02X8558Y4980I39*
G01X8696*
G02X8723Y4969J39*
G01X9310Y4382*
G03X9387Y4350I77J76*
G01X10052*
Y2927*
G03X10131Y2848I79*
G01X10524*
G03X10603Y2927J79*
G01Y3321*
G03X10524Y3399I79*
G01X10131*
G03X10052Y3321J78*
G01Y4350*
X10067*
G02X10095Y4339J39*
G01X10208Y4226*
G02X10219Y4198I28J28*
G01Y4167*
G02X10180Y4128I39*
G01X10131*
G03X10071Y4069J59*
G01Y3675*
G03X10131Y3616I60*
G01X10524*
G03X10583Y3675J59*
G01Y4069*
G03X10524Y4128I59*
G01X10475*
G02X10436Y4167J39*
G01Y4259*
G03X10404Y4336I109*
G01X10205Y4535*
G03X10128Y4567I77J77*
G01X9448*
G02X9420Y4578J39*
G01X8833Y5165*
G03X8757Y5197I76J76*
G01X8558*
G02X8519Y5236J39*
G01Y5384*
G03X8460Y5443I59*
G01X8342*
G03X8318Y5438J59*
G02X8302Y5435I16J36*
X8287Y5438J39*
G03X8263Y5443I24J54*
G01X8145*
G03X8121Y5438J59*
G02X8106Y5435I15J36*
X8090Y5438J39*
G03X8066Y5443I24J54*
G01X7958*
G02X7919Y5482J39*
G01Y5818*
G03X7887Y5894I109*
G01X7720Y6061*
G03X7643Y6093I77J76*
G01X7480*
G02X7452Y6104J39*
G01X7406Y6150*
G03X7401Y6155I76J76*
G02X7388Y6185I26J30*
G01Y6642*
G03X7360Y6714I108*
G02X7350Y6741I30J27*
G01Y6746*
G02X7362Y6774I40*
G01X7388Y6800*
G03X7420Y6877I77J77*
G01Y7096*
G02X7431Y7124I39*
G01X7954Y7646*
G02X7981Y7657I27J28*
G01X8499*
G02X8539Y7618J39*
G01Y7510*
G03X8552Y7466I78*
G02X8559Y7443I32J23*
Y7438I39*
G03X8558Y7431I58J7*
G01Y7313*
G03X8563Y7289I59*
G02X8567Y7274I36J15*
X8563Y7258I40*
G03X8558Y7234I54J24*
G01Y7116*
G03X8563Y7092I59*
G02X8567Y7077I36J15*
X8563Y7061I40*
G03X8558Y7037I54J24*
G01Y6919*
G03X8563Y6896I59*
G02X8567Y6880I36J16*
X8563Y6864I40*
G03X8558Y6841I54J23*
G01Y6722*
G03X8563Y6699I59*
G02X8567Y6683I36J16*
X8563Y6667I40*
G03X8558Y6644I54J23*
G01Y6526*
G03X8563Y6502I59*
G02X8567Y6486I36J16*
X8563Y6470I40*
G03X8558Y6447I54J23*
G01Y6329*
G03X8563Y6305I59*
G02X8567Y6289I36J16*
X8563Y6274I40*
G03X8558Y6250I54J24*
G01Y6132*
G03X8563Y6108I59*
G02X8567Y6092I36J16*
X8563Y6077I40*
G03X8558Y6053I54J24*
G01Y5935*
G03X8563Y5911I59*
G02X8567Y5896I36J15*
X8563Y5880I40*
G03X8558Y5856I54J24*
G01Y5738*
G03X8563Y5715I59*
G02X8567Y5699I36J16*
X8563Y5683I40*
G03X8558Y5659I54J24*
G01Y5541*
G03X8617Y5482I59*
G01X8765*
G02X8804Y5443J39*
G01Y5413*
G03X8836Y5337I109*
G01X9279Y4894*
G03X9356Y4862I77J76*
G01X10044*
G02X10084Y4823J39*
G01Y4774*
G03X10143Y4714I59*
G01X10536*
G03X10595Y4774J60*
G01Y5167*
G03X10536Y5226I59*
G01X10143*
G03X10084Y5167J59*
G01Y5118*
G02X10044Y5079I40*
G01X9417*
G02X9389Y5090J39*
G01X9064Y5415*
G02X9053Y5443I28J28*
X9092Y5482I39*
G01X9208*
G03X9267Y5541J59*
G01Y5659*
G03X9262Y5683I59*
G02X9259Y5699I36J16*
X9262Y5715I39*
G03X9267Y5738I54J23*
G01Y5856*
G03X9262Y5880I59*
G02X9259Y5896I36J16*
X9262Y5911I39*
G03X9267Y5935I54J24*
G01Y6053*
G03X9262Y6077I59*
G02X9259Y6092I36J15*
X9262Y6108I39*
G03X9267Y6132I54J24*
G01Y6240*
G02X9306Y6280I39*
G01X10458*
Y5561*
G03X10517Y5502I59*
G01X10706*
Y946*
G03X10765Y887I59*
G01X11552*
G03X11611Y946J59*
G01Y2127*
G03X11552Y2186I59*
G01X11306*
G02X11267Y2225J39*
G01Y3129*
G03X11252Y3183I109*
G02X11247Y3203I35J20*
X11287Y3242I40*
G01X11312*
G03X11371Y3301J59*
G01Y3695*
G03X11312Y3754I59*
G01X10918*
G03X10859Y3695J59*
G01Y3301*
G03X10918Y3242I59*
G01X10967*
G02X11007Y3203J39*
G01Y3173*
G03X11038Y3096I108*
G01X11039*
G02X11050Y3068I28J28*
G01Y2225*
G02X11011Y2186I39*
G01X10765*
G03X10706Y2127J59*
G01Y5502*
X10812*
Y4774*
G03X10891Y4695I79*
G01X11284*
G03X11363Y4774J79*
G01Y5167*
G03X11284Y5246I79*
G01X10891*
G03X10812Y5167J79*
G01Y5502*
X10910*
G03X10969Y5561J59*
G02X11009Y5600I40*
G01X11252*
G02X11279Y5589J39*
G01X11498Y5370*
G02X11510Y5342I28J28*
G01Y4919*
G03X11556Y4808I157*
G01X11559Y4805*
Y2543*
G03X11615Y2413I177*
G02X11627Y2384I27J29*
G01Y2354*
G03X11659Y2278I109*
G01X11808Y2129*
G02X11820Y2101I28J28*
G01Y1424*
G03X11879Y1365I59*
G01X12272*
G03X12329Y1406J59*
G02X12366Y1434I37J12*
G01X12367*
G02X12378Y1432J40*
G03X12407Y1428I29J104*
G01X12437*
G02X12477Y1389J39*
G01Y946*
G03X12536Y887I59*
G01X13323*
G03X13382Y946J59*
G01Y2127*
G03X13323Y2186I59*
G01X13126*
G02X13087Y2225J39*
G01Y2514*
G03X13041Y2626I157*
G01X12970Y2696*
G02X12959Y2724I28J28*
X12998Y2764I39*
G01X13497*
G03X13556Y2823J59*
G01Y3413*
G03X13497Y3472I59*
G01X12001*
G03X11942Y3413J59*
G01Y2823*
G03X12001Y2764I59*
G01X12553*
G02X12592Y2724J40*
G01Y2695*
G03X12638Y2583I157*
G01X12761Y2461*
G02X12772Y2433I28J28*
G01Y2225*
G02X12733Y2186I39*
G01X12536*
G03X12477Y2127J59*
G01Y1685*
G02X12437Y1646I40*
X12428Y1647J39*
G03X12401Y1650I27J105*
G01X12366*
G02X12329Y1678J39*
G03X12272Y1719I57J18*
G01X11879*
G03X11820Y1660J59*
G01Y1975*
G03X11879Y1916I59*
G01X12272*
G03X12331Y1975J59*
G01Y2211*
G03X12272Y2270I59*
G01X11989*
G02X11961Y2282J40*
G01X11871Y2372*
G02X11859Y2400I28J28*
X11869Y2426I40*
G03X11913Y2543I133J117*
X11736Y2720I177*
X11559Y2543J177*
G01Y4805*
X12036Y4328*
G03X12147Y4282I111J111*
G01X13538*
G02X13566Y4270J40*
G01X13907Y3930*
G02X13918Y3902I28J28*
G01Y3091*
G03X13964Y2980I158*
G01X14110Y2834*
G02X14122Y2806I27J28*
G01Y2225*
G02X14083Y2186I39*
G01X13886*
G03X13827Y2127J59*
G01Y946*
G03X13886Y887I59*
G01X14673*
G03X14732Y946J59*
G01Y2127*
G03X14673Y2186I59*
G01X14476*
G02X14437Y2225J39*
G01Y2888*
G03X14391Y2999I158*
G01X14245Y3145*
G02X14233Y3173I28J28*
G01Y3984*
G03X14187Y4095I157*
G01X13731Y4551*
G03X13620Y4597I111J112*
G01X12229*
G02X12201Y4608J39*
G01X11836Y4973*
G02X11825Y5001I28J28*
G01Y5424*
G03X11778Y5535I158*
G01X11445Y5869*
G03X11333Y5915I112J111*
G01X11009*
G02X10969Y5955J40*
G03X10910Y6014I59*
G01X10517*
G03X10458Y5955J59*
G01Y6280*
X11942*
Y5185*
G03X12001Y5126I59*
G01X13497*
G03X13556Y5185J59*
G01Y5264*
G02X13596Y5303I40*
G01X13731*
G03X13760Y5305J177*
G02X13767Y5306I7J39*
G01X14086*
G03X14263Y5483J177*
X14086Y5660I177*
G01X13734*
G03X13705Y5658J177*
G02X13699Y5657I6J39*
G01X13596*
G02X13556Y5697J40*
G01Y5775*
G03X13497Y5834I59*
G01X12001*
G03X11942Y5775J59*
G01Y6280*
X16690*
G03X16767Y6311J108*
G01X18406Y7950*
G03X18438Y8027I76J77*
G01Y9045*
G02X18477Y9085I39*
G01X18527*
G03X18586Y9144J59*
G01Y9538*
G03X18527Y9597I59*
G01X18133*
G03X18074Y9538J59*
G01Y9144*
G03X18133Y9085I59*
G01X18182*
G02X18221Y9045J40*
G01Y8088*
G02X18210Y8060I39*
G01X16657Y6508*
G02X16629Y6496I28J27*
G01X15432*
G02X15392Y6535J39*
X15404Y6563I40*
G01X15989Y7149*
G03X16021Y7226I76J77*
G01Y9086*
G02X16061Y9125I40*
G01X16110*
G03X16169Y9184J59*
G01Y9578*
G03X16110Y9637I59*
G01X15716*
G03X15657Y9578J59*
G01Y9184*
G03X15716Y9125I59*
G01X15765*
G02X15805Y9086J39*
G01Y7287*
G02X15793Y7259I40*
G01X15239Y6704*
G02X15211Y6693I28J28*
G01X12098*
G02X12059Y6732J39*
X12070Y6760I39*
G01X13450Y8140*
G03X13482Y8217I76J77*
G01Y9094*
G02X13521Y9133I39*
G01X13570*
G03X13629Y9192J59*
G01Y9586*
G03X13570Y9645I59*
G01X13177*
G03X13118Y9586J59*
G01Y9192*
G03X13177Y9133I59*
G01X13226*
G02X13265Y9094J39*
G01Y8278*
G02X13254Y8250I39*
G01X11905Y6901*
G02X11877Y6890I28J28*
G01X9306*
G02X9267Y6929J39*
G01Y7037*
G03X9262Y7061I59*
G02X9259Y7077I36J16*
X9262Y7092I39*
G03X9267Y7116I54J24*
G01Y7224*
G02X9306Y7264I39*
G01X10737*
G03X10814Y7295J108*
G01X11291Y7773*
G03X11323Y7850I76J77*
G01Y8543*
G03X11291Y8619I108*
G01X10150Y9761*
G03X10073Y9793I77J76*
G01X9496*
G02X9468Y9804J39*
G01X9052Y10221*
G02X9041Y10248I28J27*
G01Y10250*
G03Y10256I177J6*
G01Y10669*
G02X9058Y10702I39*
G03X9218Y10998I194J296*
X8864Y11352I354*
X8580Y11210J354*
G02X8548Y11195I32J24*
X8509Y11234J39*
G01Y11377*
G02X8522Y11406I39*
G03X8526Y11410I121J129*
G01X8756Y11640*
G02X8784Y11652I28J28*
X8792Y11651J40*
G03X8864Y11644I72J347*
X9218Y11998J354*
X8864Y12352I354*
X8509Y11998J354*
X8517Y11927I355*
G02Y11919I39J8*
X8506Y11891I39*
G01X8276Y11661*
G03X8224Y11535I125J126*
X8280Y11406I177*
G02X8293Y11377I27J29*
G01Y11067*
G02X8253Y11028I40*
G01X8251*
G02X8212Y11060J39*
G03X7864Y11352I348J62*
X7509Y10998J354*
X7669Y10702I355*
G02X7686Y10669I22J33*
G01Y10046*
G02X7647Y10007I39*
X7619Y10018J39*
G01X7351Y10286*
G02X7340Y10314I28J28*
G01Y10315*
G03Y10321I177J6*
G01Y10699*
G03X7288Y10824I177*
G01X7221Y10891*
G02X7210Y10919I28J28*
X7211Y10927I39*
G03X7218Y10998I347J71*
X7022Y11315I354*
G02X7000Y11350I17J35*
X7039Y11390I39*
G01X7205*
G02X7234Y11377J40*
G03X7364Y11321I130J121*
X7489Y11373J177*
G01X7756Y11640*
G02X7784Y11652I28J28*
X7792Y11651J40*
G03X7864Y11644I72J347*
X8218Y11998J354*
X7864Y12352I354*
X7509Y11998J354*
X7517Y11927I355*
G02Y11919I39J8*
X7506Y11891I39*
G01X7238Y11623*
G03X7234Y11619I126J125*
G02X7205Y11606I29J27*
G01X7039*
G02X7000Y11646J40*
X7022Y11681I39*
G03X7218Y11998I158J317*
X6864Y12352I354*
X6568Y12193J354*
G02X6535Y12175I33J22*
G01X6285*
G03X6108Y11998J177*
Y11992I177*
G01Y11990*
G02X6097Y11963I39*
G01X5944Y11810*
G03X5912Y11733I76J77*
G01Y10272*
G03X5944Y10196I108*
G01X6706Y9434*
G02X6718Y9406I28J28*
G01Y9302*
G02X6678Y9263I40*
X6651Y9274J39*
G01X5609Y10316*
G02X5597Y10344I27J28*
G01Y12413*
G02X5609Y12441I39*
G01X5914Y12746*
G02X5942Y12758I28J28*
G01X8239*
G03X8315Y12789J108*
G01X8608Y13083*
G02X8636Y13094I28J28*
X8643J39*
G03X8680Y13091I37J213*
X8896Y13307J216*
G01Y15154*
G03X8837Y15213I59*
G01X8522*
G03X8467Y15174J59*
G02X8430Y15148I37J14*
X8393Y15174J40*
G03X8337Y15213I56J20*
G01X8022*
G03X7967Y15174J59*
G02X7930Y15148I37J14*
X7893Y15174J40*
G03X7837Y15213I56J20*
G01X7522*
G03X7467Y15174J59*
G02X7430Y15148I37J14*
X7393Y15174J40*
G03X7337Y15213I56J20*
G01X7022*
G03X6967Y15174J59*
G02X6930Y15148I37J14*
X6893Y15174J40*
G03X6837Y15213I56J20*
G01X6522*
G03X6463Y15154J59*
G01Y13934*
G03X6522Y13874I59*
G01X6837*
G03X6893Y13913J60*
G02X6930Y13939I37J13*
X6967Y13913J39*
G03X7022Y13874I55J21*
G01X7337*
G03X7393Y13913J60*
G02X7430Y13939I37J13*
X7467Y13913J39*
G03X7522Y13874I55J21*
G01X7837*
G03X7889Y13905J60*
G02X7924Y13926I35J18*
X7963Y13887J39*
G01Y13429*
G03X7966Y13392I217*
G02X7967Y13386I39J6*
X7955Y13358I40*
G01X7902Y13305*
G02X7875Y13293I27J28*
G01X5664*
G03X5588Y13262J108*
G01X4992Y12666*
G03X4961Y12589I77J77*
G01Y10683*
G02X4949Y10655I40*
G01X4241Y9947*
G03X4209Y9870I76J77*
G01Y8646*
G03X4241Y8569I108*
G01X5065Y7744*
G02X5077Y7717I27J27*
X5038Y7677I39*
G01X5037*
G02X5009Y7689J40*
G01X4097Y8601*
G02X4085Y8629I28J28*
G01Y9980*
G02X4097Y10007I40*
G01X4784Y10694*
G03X4816Y10771I77J77*
G01Y13092*
G02X4827Y13120I39*
G01X5115Y13409*
G03X5147Y13485I76J76*
G01Y13736*
G02X5187Y13775I40*
G01X5236*
G03X5295Y13834J59*
G01Y14228*
G03X5236Y14287I59*
G01X4842*
G03X4783Y14228J59*
G01Y13834*
G03X4842Y13775I59*
G01X4891*
G02X4931Y13736J39*
G01Y13546*
G02X4919Y13518I40*
G01X4631Y13230*
G03X4599Y13154I76J76*
G01Y10832*
G02X4588Y10804I39*
G01X3933Y10150*
G02X3905Y10138I28J27*
X3866Y10177J39*
G01Y11616*
G02X3867Y11627I39*
G03X3871Y11656I104J29*
G01Y11685*
G02X3910Y11725I39*
G01X3960*
G03X4019Y11784J59*
G01Y12177*
G03X3960Y12236I59*
G01X3566*
G03X3507Y12177J59*
G01Y11784*
G03X3566Y11725I59*
G01X3614*
G02X3653Y11685J40*
X3652Y11676I39*
G03X3649Y11650I105J26*
G01Y8433*
G03X3681Y8356I108*
G01X4686Y7351*
G02X4698Y7323I28J28*
X4658Y7283I40*
X4630Y7295J40*
G01X2771Y9154*
G02X2759Y9182I28J28*
G01Y9855*
G02X2799Y9894I40*
G01X2848*
G03X2907Y9953J59*
G01Y10347*
G03X2848Y10406I59*
G01X2454*
G03X2395Y10347J59*
G01Y9953*
G03X2454Y9894I59*
G01X2504*
G02X2543Y9855J39*
G01Y9121*
G03X2575Y9044I108*
G01X4520Y7099*
G03X4596Y7067I76J76*
G01X5330*
G02X5369Y7028J39*
G01Y6929*
G02X5330Y6890I39*
G01X4048*
G02X4020Y6901J39*
G01X3818Y7104*
G03X3741Y7135I77J77*
G01X3628*
G02X3588Y7175J40*
X3593Y7194I40*
G03X3603Y7232I69J38*
G01Y7822*
G03X3524Y7901I79*
G01X2304*
G03X2225Y7822J79*
G01Y7232*
G03X2235Y7194I79*
G02X2240Y7175I35J19*
X2200Y7135I40*
G01X1812*
G02X1772Y7175J40*
G01Y7322*
G03X1713Y7381I59*
G01X493*
G03X434Y7322J59*
G01Y13987*
G03X499Y13977I65J207*
X536Y13980J217*
G02X542Y13981I6J39*
X570Y13969J40*
G01X836Y13704*
G02X847Y13676I28J28*
G01Y11320*
G02X808Y11281I39*
G01X759*
G03X700Y11222J59*
G01Y10434*
G03X759Y10375I59*
G01X1153*
G03X1209Y10416J59*
G02X1246Y10444I37J11*
G01X1337*
G02X1360Y10436J39*
G03X1424Y10416I64J88*
G01X1568*
G02X1608Y10376J40*
G01Y10327*
G03X1667Y10268I59*
G01X2061*
G03X2120Y10327J59*
G01Y10721*
G03X2061Y10780I59*
G01X1667*
G03X1608Y10721J59*
G01Y10672*
G02X1568Y10632I40*
G01X1482*
G02X1459Y10640J40*
G03X1396Y10660I63J88*
G01X1246*
G02X1209Y10688J40*
G03X1153Y10729I56J18*
G01X759*
G03X700Y10670J59*
G01Y10985*
G03X759Y10926I59*
G01X1153*
G03X1212Y10985J59*
G01Y11222*
G03X1153Y11281I59*
G01X1103*
G02X1064Y11320J39*
G01Y13737*
G03X1032Y13813I108*
G01X723Y14122*
G02X712Y14150I28J28*
Y14157I39*
G03X715Y14194I213J37*
G01Y16117*
G02X727Y16145I40*
G01X853Y16271*
G02X881Y16283I28J28*
G01X882*
G03X893Y16282I11J334*
X1035Y16314J335*
G02X1051Y16318I16J36*
X1091Y16278J40*
X1087Y16261I40*
G03X1054Y16117I302J144*
X1389Y15782I335*
X1664Y15926J335*
G02X1696Y15943I32J23*
X1735Y15903J40*
G01Y13134*
G03X1739Y13098I158*
G02X1740Y13090I38J8*
X1701Y13050I39*
G01X1681*
G03X1622Y12991J59*
G01Y12204*
G03X1681Y12145I59*
G01X2075*
G03X2131Y12186J59*
G02X2169Y12214I38J12*
G01X2376*
Y10701*
G03X2454Y10622I78*
G01X2848*
G03X2927Y10701J79*
G01Y11095*
G03X2848Y11174I79*
G01X2454*
G03X2376Y11095J79*
G01Y12214*
X2410*
G03X2478Y12237J108*
G02X2503Y12246I25J30*
G01X2680*
G02X2719Y12207J39*
G01Y12158*
G03X2778Y12099I59*
G01X3172*
G03X3231Y12158J59*
G01Y12551*
G03X3172Y12610I59*
G01X2778*
G03X2719Y12551J59*
G01Y12502*
G02X2680Y12463I39*
G01X2443*
G03X2375Y12439J109*
G02X2350Y12430I25J30*
G01X2169*
G02X2131Y12458J39*
G03X2075Y12499I56J18*
G01X1681*
G03X1622Y12440J59*
G01Y12755*
G03X1681Y12696I59*
G01X2075*
G03X2134Y12755J59*
G01Y12991*
G03X2081Y13050I59*
G02X2045Y13089I4J39*
X2046Y13098I40*
G03X2050Y13134I153J36*
G01Y15893*
G02X2090Y15932I40*
X2121Y15916J39*
G03X2389Y15782I268J201*
X2633Y15888J335*
G02X2662Y15900I29J27*
G01X2958*
G03X2995Y15904J217*
G02X3001I6J39*
X3029Y15893J39*
G01X3076Y15846*
G02X3087Y15818I28J28*
G01Y15243*
G02X3048Y15204I39*
G01X2999*
G03X2940Y15145J59*
G01Y14357*
G03X2999Y14298I59*
G01X3392*
G03X3449Y14340J59*
G02X3486Y14367I37J12*
G01X3487*
Y12532*
G03X3566Y12453I79*
G01X3960*
G03X4038Y12532J79*
G01Y12925*
G03X3960Y13004I78*
G01X3566*
G03X3487Y12925J79*
G01Y14367*
X3627*
G02X3655Y14356J39*
G01X3682Y14329*
G03X3759Y14297I77J76*
G01X3956*
G02X3996Y14258J39*
G01Y14208*
G03X4055Y14149I59*
G01X4448*
G03X4507Y14208J59*
G01Y14602*
G03X4448Y14661I59*
G01X4055*
G03X3996Y14602J59*
G01Y14553*
G02X3956Y14514I40*
G01X3820*
G02X3792Y14525J39*
G01X3765Y14552*
G03X3688Y14584I77J77*
G01X3486*
G02X3449Y14611J39*
G03X3392Y14653I57J17*
G01X2999*
G03X2940Y14594J59*
G01Y14909*
G03X2999Y14849I59*
G01X3392*
G03X3451Y14909J60*
G01Y15145*
G03X3392Y15204I59*
G01X3343*
G02X3304Y15243J39*
G01Y15879*
G03X3272Y15956I108*
G01X3182Y16046*
G02X3171Y16074I28J28*
Y16080I39*
G03X3175Y16117I213J37*
X2958Y16334I217*
G01X2662*
G02X2633Y16346J39*
G03X2389Y16452I244J229*
X2247Y16420J335*
G02X2230Y16416I17J36*
X2191Y16456J40*
X2195Y16473I39*
G03X2227Y16617I302J144*
X1893Y16952I334*
X1558Y16617J335*
X1593Y16468I335*
G02X1597Y16451I35J17*
X1558Y16411I39*
X1540Y16416J40*
G03X1389Y16452I151J299*
X1247Y16420J335*
G02X1230Y16416I17J36*
X1191Y16456J40*
X1195Y16473I39*
G03X1227Y16617I302J144*
X893Y16952I334*
X558Y16617J335*
Y16606I335*
G01Y16605*
G02X547Y16577I39*
G01X346Y16376*
G03X282Y16223I153J153*
G01Y17992*
X3254*
G02X3294Y17953J39*
G01Y16929*
X4763*
Y14582*
G03X4842Y14504I79*
G01X5236*
G03X5315Y14582J78*
G01Y14976*
G03X5236Y15055I79*
G01X4842*
G03X4763Y14976J79*
G01Y16929*
X6443*
Y15532*
G03X6522Y15453I79*
G01X6837*
G03X6906Y15495J79*
G02X6941Y15515I35J19*
X6973Y15498J39*
G03X7022Y15473I49J34*
G01X7337*
G03X7386Y15498J59*
G02X7418Y15515I32J22*
X7453Y15495J39*
G03X7522Y15453I69J37*
G01X7837*
G03X7899Y15483J79*
G02X7930Y15498I31J24*
X7960Y15483J39*
G03X8022Y15453I62J49*
G01X8337*
G03X8406Y15495J79*
G02X8441Y15515I35J19*
X8473Y15498J39*
G03X8522Y15473I49J34*
G01X8837*
G03X8896Y15532J59*
G01Y15886*
G02X8935Y15926I39*
G01X8967*
G02X8995Y15914J40*
G01X9450Y15459*
Y10703*
G03X9568Y10585I118*
G01X10159*
G03X10277Y10703J118*
G01Y11293*
G03X10159Y11411I118*
G01X9568*
G03X9450Y11293J118*
G01Y15459*
X9636Y15274*
G02X9647Y15246I28J28*
G01Y15237*
G03X9680Y15122I217*
G02X9686Y15101I33J21*
G01Y14588*
G03X9697Y14529I178*
G02X9699Y14516I38J13*
G01Y13623*
G02X9697Y13610I40*
G03X9686Y13551I167J59*
G01Y12327*
G02X9669Y12294I39*
G03X9509Y11998I195J296*
X9864Y11644I355*
X10192Y11865J354*
G02X10229Y11890I37J15*
G01X10313*
G02X10323Y11888J40*
G03X10351Y11885I28J105*
G01X10445*
G02X10460Y11882J40*
G01Y11324*
G03X10539Y11245I79*
G01X10933*
G03X11011Y11324J79*
G01Y11560*
G03X10933Y11639I78*
G01X10539*
G03X10460Y11560J79*
G01Y11882*
G02X10483Y11857I15J37*
G03X10539Y11816I56J18*
G01X10933*
G03X10992Y11875J59*
G01Y12111*
G03X10933Y12170I59*
G01X10539*
G03X10483Y12129J59*
G02X10445Y12101I38J12*
G01X10385*
G02X10374Y12103J40*
G03X10346Y12106I28J105*
G01X10229*
G02X10192Y12131J40*
G03X10058Y12294I328J133*
G02X10041Y12327I22J33*
G01Y13491*
G02X10043Y13504I39*
G03X10053Y13563I167J59*
G01Y14576*
G03X10043Y14635I177*
G02X10041Y14648I37J13*
G01Y15101*
G02X10047Y15122I39*
G03X10080Y15237I183J115*
G01Y15352*
G03X10017Y15505I216*
G01X9226Y16295*
G03X9073Y16359I153J153*
G01X8935*
G02X8896Y16398J39*
G01Y16752*
G03X8837Y16812I59*
G01X8522*
G03X8473Y16786J60*
G02X8441Y16769I32J22*
X8406Y16790J39*
G03X8337Y16831I69J38*
G01X8022*
G03X7960Y16801J79*
G02X7930Y16786I30J25*
X7899Y16801J40*
G03X7837Y16831I62J49*
G01X7522*
G03X7453Y16790J79*
G02X7418Y16769I35J18*
X7386Y16786J39*
G03X7337Y16812I49J34*
G01X7022*
G03X6973Y16786J60*
G02X6941Y16769I32J22*
X6906Y16790J39*
G03X6837Y16831I69J38*
G01X6522*
G03X6443Y16752J79*
G01Y16929*
X11158*
G02X11198Y16890J39*
G01Y15905*
G02X11158Y15866I40*
G01X10441*
G03X10382Y15807J59*
G01Y14361*
G03X10441Y14301I59*
G01X12330*
Y9566*
G03X12389Y9507I59*
G01X12783*
G03X12842Y9566J59*
G01Y9960*
G03X12783Y10019I59*
G01X12734*
G02X12694Y10058J39*
G01Y10721*
G02X12706Y10749I40*
G01X12719Y10762*
G03X12750Y10838I77J76*
G01Y10873*
G02X12778Y10910I40*
G03X12819Y10966I18J56*
G01Y11360*
G03X12760Y11419I59*
G01X12524*
G03X12465Y11360J59*
G01Y10966*
G03X12495Y10915I59*
G02X12515Y10881I19J34*
X12505Y10854I39*
G03X12478Y10783I81J71*
G01Y10058*
G02X12438Y10019I40*
G01X12389*
G03X12330Y9960J59*
G01Y14301*
X13016*
Y10966*
G03X13075Y10907I59*
G01X13098*
Y9940*
G03X13177Y9862I79*
G01X13570*
G03X13649Y9940J78*
G01Y10334*
G03X13570Y10413I79*
G01X13177*
G03X13098Y10334J79*
G01Y10907*
X13311*
G03X13370Y10966J59*
G01Y11250*
G02X13382Y11278I40*
G01X14870Y12765*
Y9559*
G03X14929Y9499I59*
G01X15322*
G03X15381Y9559J60*
G01Y9952*
G03X15322Y10011I59*
G01X15273*
G02X15234Y10051J40*
G01Y10824*
G02X15236Y10836I39*
G03X15240Y10867I104J31*
G01Y10901*
G02X15268Y10939I40*
G03X15309Y10995I18J56*
G01Y11389*
G03X15250Y11448I59*
G01X15014*
G03X14955Y11389J59*
G01Y10995*
G03X14996Y10939I59*
G02X15023Y10901I12J38*
X15021Y10891I39*
G03X15017Y10861I105J30*
G01Y10051*
G02X14978Y10011I39*
G01X14929*
G03X14870Y9952J59*
G01Y12765*
X14962Y12857*
G02X14990Y12869I28J27*
X14996Y12868J39*
G03X15033Y12865I37J214*
G01X16051*
G02X16080Y12853J39*
G03X16324Y12747I244J229*
X16466Y12779J335*
G02X16482Y12783I16J36*
X16522Y12743J40*
X16518Y12726I40*
G03X16485Y12582I302J144*
X16820Y12247I335*
X17154Y12582J335*
X17120Y12731I334*
G02X17115Y12748I35J17*
X17155Y12788I40*
X17173Y12783J40*
G03X17324Y12747I151J299*
X17466Y12779J335*
G02X17482Y12783I16J36*
X17522Y12743J40*
X17518Y12726I40*
G03X17485Y12582I302J144*
Y12571I335*
G01Y12570*
G02X17474Y12542I39*
G01X16277Y11345*
G03X16253Y11317I153J153*
G02X16221Y11300I32J23*
G01X15900*
G02X15860Y11340J40*
G01Y11389*
G03X15801Y11448I59*
G01X15565*
G03X15506Y11389J59*
G01Y10995*
G03X15565Y10936I59*
G01X15637*
Y9933*
G03X15716Y9854I79*
G01X16110*
G03X16189Y9933J79*
G01Y10326*
G03X16110Y10405I79*
G01X15716*
G03X15637Y10326J79*
G01Y10936*
X15801*
G03X15860Y10995J59*
G01Y11044*
G02X15900Y11084I40*
G01X16221*
G02X16253Y11067J40*
G03X16430Y10975I177J125*
X16583Y11039J217*
G01X17286Y11742*
Y9518*
G03X17345Y9459I59*
G01X17739*
G03X17798Y9518J59*
G01Y9912*
G03X17739Y9971I59*
G01X17690*
G02X17651Y10010J39*
G01Y10732*
G02X17662Y10760I39*
G01X17671Y10769*
G03X17702Y10845I77J76*
G01Y10879*
G02X17730Y10917I40*
G03X17771Y10973I18J56*
G01Y11367*
G03X17712Y11426I59*
G01X17476*
G03X17417Y11367J59*
G01Y10973*
G03X17447Y10922I59*
G02X17468Y10887I19J35*
X17459Y10862I40*
G03X17434Y10793I83J69*
G01Y10010*
G02X17395Y9971I39*
G01X17345*
G03X17286Y9912J59*
G01Y11742*
X17780Y12236*
G02X17808Y12247I28J28*
G01X17809*
G03X17820I11J335*
X18154Y12582J335*
X17820Y12916I334*
X17678Y12885J334*
G02X17661Y12881I17J36*
X17622Y12921J40*
X17626Y12938I39*
G03X17658Y13065I302J144*
G02X17692Y13102I39J2*
G03X17703Y13104I32J214*
G02X17711Y13105I8J38*
G01X18124*
G02X18152Y13094J39*
G01X18443Y12803*
G03X18471Y12779I153J153*
G02X18488Y12747I23J32*
G01Y11364*
G02X18476Y11337I40*
G01X18429Y11290*
G02X18401Y11278I28J28*
G01X18362*
G02X18322Y11318J40*
G01Y11367*
G03X18263Y11426I59*
G01X18027*
G03X17968Y11367J59*
G01Y10973*
G03X18027Y10914I59*
G01X18054*
Y9892*
G03X18133Y9813I79*
G01X18527*
G03X18605Y9892J79*
G01Y10286*
G03X18527Y10364I78*
G01X18133*
G03X18054Y10286J78*
G01Y10914*
X18263*
G03X18322Y10973J59*
G01Y11022*
G02X18362Y11062I40*
G01X18463*
G03X18539Y11093J108*
G01X18672Y11227*
G03X18704Y11303I76J76*
G01Y12747*
G02X18721Y12779I39*
G03X18812Y12956I125J177*
X18749Y13109I216*
G01X18383Y13475*
G03X18230Y13538I153J153*
G01X17665*
G03X17622Y13534J216*
G02X17614Y13533I8J38*
G01X17558*
G03X17405Y13469J217*
G01X17363Y13428*
G02X17336Y13416I27J28*
G01X17334*
G03X17324I10J334*
X16989Y13082J334*
X17024Y12933I335*
G02X17028Y12916I35J17*
X16989Y12876I39*
X16971Y12880J40*
G03X16820Y12916I151J298*
X16678Y12885J334*
G02X16661Y12881I17J36*
X16622Y12921J40*
X16626Y12938I39*
G03X16658Y13082I302J144*
X16324Y13416I334*
X16080Y13311J334*
G02X16051Y13298I29J27*
G01X15033*
G03X14816Y13082J216*
X14820Y13045I217*
G02Y13038I39J7*
X14809Y13011I39*
G01X13229Y11431*
G02X13201Y11419I28J28*
G01X13075*
G03X13016Y11360J59*
G01Y14301*
X15885*
G03X15944Y14361J60*
G01Y15807*
G03X15885Y15866I59*
G01X15263*
G02X15223Y15905J39*
G01Y17015*
G03X15164Y17074I59*
G01X13950*
G02X13910Y17113J39*
G01Y17953*
G02X13950Y17992I40*
G01X19528*
G02X19567Y17953J39*
G01Y6352*
G02X19559Y6328I39*
G01X14913Y134*
G02X14882Y118I31J23*
G01X9348*
G02X9309Y157J39*
G01Y847*
G02X9348Y887I39*
G01X10091*
G03X10150Y946J59*
G01Y2127*
G03X10091Y2186I59*
G01X9304*
G03X9245Y2127J59*
G01Y1240*
G02X9206Y1201I39*
G01X8443*
G03X8384Y1142J59*
G01Y1012*
G02X8345Y972I39*
X8310Y993J40*
G03X8258Y1024I52J29*
G01X7341*
G02X7313Y1035J39*
G01X7011Y1337*
G02X7000Y1365I28J28*
G01Y1624*
G02X7039Y1664I39*
G01X8225*
G03X8378Y1727J216*
G01X8529Y1878*
G02X8556Y1889I27J28*
G01X8632*
G02X8672Y1850J39*
G01Y1830*
G03Y1821I137*
G02Y1819I39J2*
G01Y1761*
G02X8633Y1721I39*
G01X8613*
G03X8554Y1662J59*
G01Y1426*
G03X8613Y1367I59*
G01X9007*
G03X9066Y1426J59*
G01Y1662*
G03X9007Y1721I59*
G01X8987*
G02X8948Y1761J40*
G01Y1830*
G03X8947Y1839I138*
G02Y1841I40J2*
G01Y1889*
G02X8987Y1929I40*
G01X9006*
G03X9065Y1988J59*
G01Y2224*
G03X9006Y2283I59*
G01X8946*
G02X8925Y2289J39*
G03X8809Y2322I116J183*
G01X8450*
G03X8297Y2259J216*
G01X8147Y2108*
G02X8119Y2097I28J28*
G01X8027*
G02X7988Y2136J39*
X8015Y2173I39*
G03X8069Y2248I25J75*
G01Y2512*
G03X7990Y2591I79*
G02X7951Y2630J39*
X7990Y2669I39*
G03X8069Y2748J79*
G01Y3012*
G03X7990Y3091I79*
G01X7750*
G02X7710Y3130J39*
X7741Y3169I40*
G03X7790Y3185I46J211*
G02X7807Y3189I17J35*
G01X7990*
G03X8049Y3248J59*
G01Y3512*
G03X7990Y3571I59*
G01X7807*
G02X7790Y3575J39*
G03X7695Y3597I95J195*
G01X7015*
G03X6862Y3533J217*
G01X6630Y3301*
G03X6567Y3148I153J153*
G01Y1991*
G03X6588Y1897I216*
G02X6592Y1880I35J17*
X6588Y1863I39*
G03X6567Y1769I195J94*
G01Y1259*
G03X6630Y1106I216*
G01X7007Y729*
G02X7018Y701I28J28*
G01Y177*
G03X7019Y165I59*
G02X7020Y157I38J8*
X6981Y118I39*
G01X5886*
G02X5846Y157J39*
X5847Y164I40*
G03X5848Y177I78J13*
G01Y964*
G03X5769Y1043I79*
G01X4588*
G03X4509Y964J79*
G01Y177*
G03X4511Y164I79*
G02Y157I39J7*
X4472Y118I39*
G01X4461*
G02X4422Y157J39*
G01Y1343*
G03X4363Y1402I59*
G01X3858*
G03X3799Y1343J59*
G01Y157*
G02X3760Y118I39*
G01X2969*
G02X2944Y127J39*
G01X133Y2407*
G02X118Y2437I24J30*
G01Y17953*
X493Y5732D02*
X1556D01*
Y6322*
X493*
Y5732*
X4426Y9809D02*
G02X4437Y9837I39D01*
G01X4907Y10307*
Y8888*
G03X4986Y8809I79*
G01X5222*
G03X5301Y8888J79*
G01Y9282*
G03X5222Y9361I79*
G01X4986*
G03X4907Y9282J79*
G01Y10307*
X5145Y10545*
G03X5177Y10622I76J77*
G01Y12528*
G02X5189Y12556I39*
G01X5698Y13065*
G02X5726Y13077I28J28*
G01X7936*
G03X8012Y13109J108*
G01X8108Y13205*
G02X8136Y13216I28J28*
X8143J39*
G03X8180Y13212I37J213*
X8386Y13364J217*
G02X8424Y13392I38J12*
X8463Y13352J40*
G01Y13307*
G03X8466Y13270I217*
G02X8467Y13264I39J6*
X8455Y13236I40*
G01X8205Y12986*
G02X8177Y12974I28J28*
G01X5881*
G03X5804Y12943J108*
G01X5412Y12551*
G03X5381Y12474I77J77*
G01Y10283*
G03X5412Y10206I108*
G01X6509Y9109*
G02X6521Y9082I27J27*
G01Y8691*
G02X6482Y8652I39*
G01X6383*
G02X6344Y8691J39*
G01Y8751*
G03X6312Y8827I109*
G01X5978Y9162*
G03X5901Y9193I77J77*
G01X5872*
G02X5832Y9233J40*
G01Y9282*
G03X5773Y9341I59*
G01X5537*
G03X5478Y9282J59*
G01Y8888*
G03X5537Y8829I59*
G01X5773*
G03X5832Y8888J59*
G01Y8906*
G02X5872Y8945I40*
X5899Y8934J39*
G01X6116Y8717*
G02X6127Y8690I28J27*
G01Y8616*
G02X6123Y8599I39*
G03X6117Y8573I53J26*
G01Y7982*
G03X6123Y7957I59*
G02X6127Y7939I35J18*
G01Y7895*
G02X6088Y7856I39*
X6060Y7867J39*
G03X6019Y7884I41J42*
G01X5428*
G03X5403Y7878J59*
G02X5385Y7874I18J35*
G01X5258*
G02X5231Y7886J39*
G01X4437Y8679*
G02X4426Y8707I28J28*
G01Y9809*
X7171Y6581D02*
G03X7161Y6608I39D01*
G02X7135Y6666I81J72*
G03X7101Y6700I39J5*
G02X7038Y6731I14J107*
G01X6159Y7610*
G02X6149Y7621I76J76*
G03X6117Y7637I32J23*
X6078Y7598J39*
G01Y7510*
G02X6073Y7486I59*
G03X6070Y7470I36J16*
X6073Y7455I39*
G02X6078Y7431I54J24*
G01Y7313*
G02X6073Y7289I59*
G03X6070Y7274I36J15*
X6073Y7258I39*
G02X6078Y7234I54J24*
G01Y7116*
G02X6073Y7092I59*
G03X6070Y7077I36J15*
X6073Y7061I39*
G02X6078Y7037I54J24*
G01Y6919*
G02X6073Y6896I59*
G03X6070Y6880I36J16*
X6073Y6864I39*
G02X6078Y6841I54J23*
G01Y6722*
G02X6073Y6699I59*
G03X6070Y6683I36J16*
X6073Y6667I39*
G02X6078Y6644I54J23*
G01Y6526*
G02Y6518I59*
G03X6077Y6513I39J5*
X6084Y6491I40*
G02X6098Y6447I65J44*
G01Y6329*
G02X6084Y6284I79*
G03X6077Y6262I33J22*
X6078Y6257I40*
G02Y6250I59J7*
G01Y6132*
G02X6073Y6108I59*
G03X6070Y6092I36J16*
X6073Y6077I39*
G02X6078Y6053I54J24*
G01Y5935*
G02Y5928I59*
G03X6077Y5923I39J5*
X6084Y5901I40*
G02X6098Y5856I65J45*
G01Y5753*
G03X6137Y5714I39*
X6165Y5725J39*
G01X6520Y6081*
G02X6597Y6113I77J77*
G01X7132*
G03X7171Y6152J39*
G01Y6581*
X7439Y2630D02*
G03X7400Y2669I39D01*
G02X7321Y2748J79*
G01Y3012*
G02X7375Y3087I79*
G03X7402Y3124I12J37*
X7363Y3164I39*
G01X7121*
G03X7093Y3152J40*
G01X7011Y3070*
G03X7000Y3042I28J28*
G01Y2136*
G03X7039Y2097I39*
G01X7363*
G03X7402Y2136J39*
X7375Y2173I39*
G02X7321Y2248I25J75*
G01Y2512*
G02X7400Y2591I79*
G03X7439Y2630J39*
G01X7702Y5756D02*
G03X7690Y5784I39D01*
G01X7610Y5865*
G03X7582Y5876I28J28*
G01X7419*
G02X7342Y5908J109*
G01X7332Y5918*
G03X7304Y5930I28J27*
X7279Y5921J39*
G02X7210Y5896I69J83*
G01X6658*
G03X6630Y5884J39*
G01X6270Y5524*
G02X6258Y5514I77J76*
G03X6242Y5482I24J32*
X6282Y5443I40*
G01X6295*
G02X6318Y5438J59*
G03X6334Y5435I16J36*
X6350Y5438J39*
G02X6373Y5443I23J54*
G01X6491*
G02X6515Y5438J59*
G03X6531Y5435I16J36*
X6547Y5438J39*
G02X6570Y5443I23J54*
G01X6688*
G02X6712Y5438J59*
G03X6728Y5435I16J36*
X6743Y5438J39*
G02X6767Y5443I24J54*
G01X6885*
G02X6909Y5438J59*
G03X6924Y5435I15J36*
X6940Y5438J39*
G02X6964Y5443I24J54*
G01X7082*
G02X7106Y5438J59*
G03X7121Y5435I15J36*
X7137Y5438J39*
G02X7161Y5443I24J54*
G01X7279*
G02X7302Y5438J59*
G03X7318Y5435I16J36*
X7334Y5438J39*
G02X7358Y5443I24J54*
G01X7476*
G02X7483Y5442J59*
G03X7488I5J39*
X7510Y5449J39*
G02X7554Y5463I44J65*
G01X7663*
G03X7702Y5502J39*
G01Y5756*
X7871Y7884D02*
G03X7832Y7923I39D01*
G01X7751*
G02X7728Y7928J59*
G03X7712Y7931I16J36*
X7696Y7928J39*
G02X7672Y7923I24J54*
G01X7554*
G02X7531Y7928J59*
G03X7515Y7931I16J36*
X7499Y7928J39*
G02X7476Y7923I23J54*
G01X7358*
G02X7334Y7928J59*
G03X7318Y7931I16J36*
X7302Y7928J39*
G02X7279Y7923I23J54*
G01X7161*
G02X7137Y7928J59*
G03X7121Y7931I16J36*
X7106Y7928J39*
G02X7082Y7923I24J54*
G01X6964*
G02X6940Y7928J59*
G03X6924Y7931I16J36*
X6909Y7928J39*
G02X6885Y7923I24J54*
G01X6767*
G02X6743Y7928J59*
G03X6728Y7931I15J36*
X6712Y7928J39*
G02X6688Y7923I24J54*
G01X6570*
G02X6563Y7924J59*
G03X6558I5J39*
X6536Y7917J39*
G02X6491Y7904I45J65*
G01X6383*
G03X6344Y7864J40*
G01Y7747*
G03X6355Y7720I39*
G01X7136Y6939*
G03X7164Y6927I28J28*
X7203Y6967J40*
G01Y7157*
G02X7235Y7233I108*
G01X7844Y7842*
G02X7855Y7852I76J76*
G03X7871Y7884I23J32*
G01X8502Y7941D02*
G03X8519Y7982I42J41D01*
G01Y8573*
G03X8513Y8599I59*
G02X8509Y8616I35J17*
G01Y10762*
G02X8548Y10801I39*
X8580Y10786J39*
G03X8669Y10702I284J212*
G02X8686Y10669I22J33*
G01Y10256*
G03X8864Y10079I178*
X8870J177*
G01X8871*
G02X8899Y10067J39*
G01X9293Y9674*
Y8841*
G03X9372Y8763I79*
G01X9608*
G03X9686Y8841J78*
G01Y9235*
G03X9608Y9314I78*
G01X9372*
G03X9293Y9235J79*
G01Y9674*
X9358Y9608*
G03X9435Y9576I77J77*
G01X10012*
G02X10040Y9565J39*
G01X11095Y8510*
G02X11107Y8482I28J28*
G01Y7911*
G02X11095Y7883I40*
G01X10704Y7492*
G02X10676Y7480I28J28*
G01X9326*
G02X9287Y7520J40*
G01Y7628*
G03X9273Y7672I79*
G02X9266Y7694I33J22*
X9267Y7699I40*
G03Y7707I59J8*
G01Y7825*
G03X9208Y7884I59*
G01X9060*
G02X9021Y7923J39*
G01Y8630*
G02X9028Y8652I39*
G03X9047Y8713I90J61*
G01Y8747*
G02X9074Y8785I39*
G03X9116Y8841I17J56*
G01Y9235*
G03X9057Y9294I59*
G01X8820*
G03X8761Y9235J59*
G01Y8841*
G03X8796Y8788I59*
G02X8819Y8752I16J36*
X8815Y8735I39*
G03X8804Y8688I98J47*
G01Y7923*
G02X8765Y7884I39*
G01X8617*
G03X8592Y7878J59*
G02X8574Y7874I18J35*
G01X8530*
G02X8491Y7913J39*
X8502Y7941I39*
G37*
G54D10*
G01X3956Y437D02*
Y538D01*
X4265*
Y437*
X3956*
X8798Y122D02*
Y347D01*
X8576*
Y440*
X8798*
Y663*
X8894*
Y440*
X9116*
Y347*
X8894*
Y122*
X8798*
X10709Y14655D02*
Y15474D01*
X11018*
X11038*
X11056Y15473*
X11074*
X11090Y15471*
X11105*
X11118Y15469*
X11130Y15467*
X11142Y15466*
X11171Y15459*
X11198Y15451*
X11222Y15441*
X11243Y15427*
X11262Y15412*
X11280Y15394*
X11295Y15373*
X11309Y15349*
X11320Y15323*
X11327Y15295*
X11332Y15267*
X11334Y15237*
X11333Y15211*
X11330Y15187*
X11324Y15163*
X11317Y15141*
X11308Y15119*
X11296Y15099*
X11282Y15079*
X11267Y15060*
X11258Y15051*
X11249Y15043*
X11238Y15036*
X11227Y15029*
X11215Y15023*
X11202Y15016*
X11189Y15011*
X11174Y15007*
X11158Y15002*
X11142Y14999*
X11125Y14995*
X11107Y14993*
X11088Y14991*
X11069Y14989*
X11048Y14988*
X11027*
X10817*
Y14655*
X10709*
X10817Y15085D02*
X11029D01*
X11054Y15086*
X11077Y15087*
X11098Y15091*
X11118Y15095*
X11136Y15100*
X11152Y15107*
X11166Y15115*
X11178Y15124*
X11188Y15134*
X11197Y15146*
X11204Y15158*
X11210Y15171*
X11215Y15185*
X11219Y15200*
X11221Y15216*
X11222Y15234*
Y15247*
X11220Y15259*
X11218Y15270*
X11215Y15281*
X11211Y15292*
X11207Y15303*
X11202Y15312*
X11196Y15322*
X11182Y15338*
X11166Y15351*
X11147Y15363*
X11127Y15370*
X11120Y15371*
X11110Y15373*
X11100Y15374*
X11088Y15375*
X11075Y15376*
X11060*
X11044Y15377*
X11026*
X10817*
Y15085*
X11382Y14655D02*
X11696Y15474D01*
X11814*
X12147Y14655*
X12024*
X11930Y14903*
X11586*
X11497Y14655*
X11382*
X11490Y15863D02*
Y16682D01*
X12081*
Y16585*
X11598*
Y16335*
X12051*
Y16239*
X11598*
Y15960*
X12100*
Y15863*
X11490*
X11617Y14991D02*
X11896D01*
X11810Y15218*
X11801Y15243*
X11792Y15267*
X11783Y15291*
X11776Y15312*
X11769Y15333*
X11762Y15352*
X11757Y15371*
X11752Y15388*
X11742Y15349*
X11732Y15310*
X11721Y15271*
X11707Y15231*
X11617Y14991*
X12239Y14655D02*
Y15474D01*
X12791*
Y15377*
X12347*
Y15124*
X12731*
Y15027*
X12347*
Y14655*
X12239*
X12246Y15863D02*
Y16682D01*
X12354*
Y15960*
X12757*
Y15863*
X12246*
X12891D02*
Y16682D01*
X13443*
Y16585*
X12999*
Y16332*
X13383*
Y16235*
X12999*
Y15863*
X12891*
X13587D02*
Y16682D01*
X14178*
Y16585*
X13695*
Y16335*
X14147*
Y16239*
X13695*
Y15960*
X14197*
Y15863*
X13587*
X13738Y14752D02*
Y14655D01*
X13196*
Y14673*
X13198Y14691*
X13202Y14708*
X13208Y14725*
X13220Y14753*
X13234Y14780*
X13253Y14807*
X13274Y14834*
X13286Y14847*
X13299Y14862*
X13314Y14876*
X13330Y14891*
X13346Y14907*
X13365Y14923*
X13385Y14940*
X13406Y14958*
X13438Y14984*
X13466Y15010*
X13494Y15034*
X13518Y15056*
X13538Y15077*
X13557Y15097*
X13573Y15115*
X13586Y15131*
X13598Y15147*
X13607Y15163*
X13615Y15179*
X13622Y15194*
X13627Y15208*
X13630Y15223*
X13633Y15238*
X13634Y15252*
X13633Y15267*
X13631Y15281*
X13628Y15295*
X13623Y15307*
X13617Y15319*
X13610Y15331*
X13601Y15343*
X13590Y15353*
X13580Y15363*
X13568Y15371*
X13555Y15378*
X13542Y15383*
X13527Y15388*
X13512Y15391*
X13496Y15393*
X13479Y15394*
X13462Y15393*
X13445Y15391*
X13429Y15387*
X13414Y15383*
X13399Y15377*
X13386Y15369*
X13374Y15360*
X13362Y15351*
X13353Y15339*
X13343Y15327*
X13336Y15313*
X13330Y15299*
X13325Y15283*
X13322Y15266*
X13319Y15248*
X13318Y15230*
X13215Y15240*
X13219Y15268*
X13224Y15295*
X13231Y15319*
X13241Y15342*
X13251Y15363*
X13264Y15383*
X13278Y15400*
X13295Y15416*
X13314Y15431*
X13333Y15443*
X13354Y15453*
X13376Y15462*
X13400Y15468*
X13426Y15473*
X13453Y15476*
X13482Y15477*
X13510Y15476*
X13538Y15473*
X13563Y15467*
X13587Y15460*
X13610Y15451*
X13630Y15440*
X13650Y15427*
X13668Y15411*
X13684Y15395*
X13698Y15377*
X13710Y15359*
X13720Y15339*
X13727Y15318*
X13733Y15296*
X13736Y15274*
X13737Y15250*
X13735Y15225*
X13732Y15201*
X13726Y15177*
X13717Y15153*
X13711Y15141*
X13705Y15129*
X13698Y15117*
X13690Y15104*
X13681Y15092*
X13671Y15079*
X13661Y15067*
X13650Y15053*
X13637Y15039*
X13622Y15025*
X13606Y15008*
X13587Y14991*
X13567Y14972*
X13545Y14953*
X13521Y14931*
X13494Y14910*
X13473Y14891*
X13454Y14875*
X13436Y14859*
X13420Y14846*
X13407Y14834*
X13395Y14823*
X13386Y14814*
X13378Y14807*
X13366Y14793*
X13355Y14779*
X13345Y14766*
X13336Y14752*
X13738*
X13845Y15059D02*
X13846Y15095D01*
Y15128*
X13849Y15160*
X13852Y15190*
X13857Y15219*
X13862Y15245*
X13868Y15270*
X13874Y15293*
X13882Y15315*
X13891Y15335*
X13902Y15354*
X13912Y15371*
X13923Y15387*
X13936Y15403*
X13950Y15416*
X13964Y15429*
X13979Y15440*
X13995Y15450*
X14012Y15459*
X14030Y15465*
X14050Y15471*
X14070Y15474*
X14090Y15476*
X14112Y15477*
X14128Y15476*
X14144Y15475*
X14159Y15473*
X14174Y15471*
X14188Y15467*
X14202Y15462*
X14215Y15457*
X14228Y15451*
X14252Y15435*
X14274Y15418*
X14293Y15398*
X14310Y15374*
X14326Y15347*
X14339Y15319*
X14350Y15287*
X14361Y15252*
X14365Y15234*
X14369Y15214*
X14372Y15191*
X14374Y15168*
X14377Y15143*
X14378Y15117*
X14379Y15089*
Y15059*
X14378Y15024*
Y14991*
X14375Y14959*
X14372Y14929*
X14368Y14901*
X14362Y14875*
X14357Y14850*
X14350Y14827*
X14342Y14805*
X14333Y14785*
X14323Y14766*
X14313Y14748*
X14301Y14731*
X14289Y14716*
X14275Y14703*
X14261Y14690*
X14246Y14679*
X14230Y14669*
X14213Y14660*
X14194Y14654*
X14175Y14648*
X14155Y14645*
X14134Y14643*
X14112Y14642*
X14083Y14643*
X14056Y14647*
X14030Y14654*
X14006Y14663*
X13984Y14675*
X13963Y14689*
X13943Y14707*
X13926Y14726*
X13916Y14739*
X13907Y14754*
X13898Y14769*
X13890Y14785*
X13883Y14803*
X13877Y14821*
X13870Y14840*
X13865Y14861*
X13860Y14882*
X13856Y14904*
X13853Y14927*
X13850Y14952*
X13848Y14977*
X13846Y15003*
X13845Y15031*
Y15059*
X13948D02*
Y15035D01*
X13949Y15011*
X13950Y14988*
X13951Y14967*
X13953Y14946*
X13954Y14927*
X13957Y14908*
X13960Y14891*
X13963Y14875*
X13966Y14859*
X13970Y14845*
X13974Y14832*
X13979Y14820*
X13984Y14809*
X13990Y14799*
X13995Y14791*
X14007Y14775*
X14020Y14762*
X14034Y14750*
X14048Y14741*
X14063Y14734*
X14078Y14728*
X14095Y14725*
X14112Y14724*
X14129Y14725*
X14146Y14728*
X14161Y14734*
X14176Y14741*
X14190Y14751*
X14204Y14762*
X14217Y14775*
X14229Y14791*
X14234Y14799*
X14240Y14810*
X14245Y14821*
X14250Y14833*
X14254Y14846*
X14258Y14860*
X14261Y14875*
X14264Y14891*
X14267Y14908*
X14270Y14927*
X14271Y14947*
X14273Y14967*
X14274Y14988*
X14275Y15011*
X14276Y15035*
Y15059*
Y15083*
X14275Y15107*
X14274Y15130*
X14273Y15151*
X14271Y15172*
X14270Y15191*
X14267Y15210*
X14264Y15227*
X14261Y15243*
X14258Y15259*
X14254Y15272*
X14250Y15286*
X14245Y15298*
X14240Y15308*
X14234Y15319*
X14229Y15327*
X14217Y15343*
X14204Y15356*
X14190Y15367*
X14176Y15377*
X14161Y15384*
X14145Y15390*
X14128Y15393*
X14111Y15394*
X14094Y15393*
X14078Y15390*
X14062Y15386*
X14049Y15379*
X14035Y15371*
X14022Y15361*
X14010Y15349*
X14000Y15335*
X13994Y15325*
X13988Y15315*
X13982Y15303*
X13977Y15290*
X13973Y15276*
X13968Y15261*
X13965Y15246*
X13961Y15229*
X13958Y15211*
X13955Y15192*
X13953Y15172*
X13951Y15151*
X13950Y15130*
X13949Y15107*
X13948Y15083*
Y15059*
X14311Y16127D02*
X14413Y16135D01*
X14418Y16106*
X14425Y16079*
X14435Y16055*
X14447Y16035*
X14454Y16025*
X14462Y16015*
X14471Y16007*
X14480Y15999*
X14491Y15991*
X14503Y15984*
X14515Y15977*
X14529Y15971*
X14558Y15960*
X14588Y15953*
X14620Y15948*
X14655Y15947*
X14684*
X14712Y15951*
X14739Y15957*
X14763Y15965*
X14786Y15975*
X14805Y15987*
X14821Y16000*
X14834Y16015*
X14844Y16032*
X14851Y16049*
X14855Y16067*
X14857Y16086*
X14855Y16104*
X14851Y16122*
X14844Y16138*
X14835Y16153*
X14828Y16160*
X14821Y16167*
X14813Y16173*
X14804Y16179*
X14795Y16185*
X14784Y16191*
X14773Y16196*
X14760Y16201*
X14751Y16205*
X14739Y16209*
X14724Y16213*
X14707Y16218*
X14688Y16223*
X14666Y16228*
X14642Y16235*
X14615Y16241*
X14587Y16248*
X14563Y16255*
X14539Y16261*
X14519Y16267*
X14500Y16274*
X14483Y16280*
X14469Y16287*
X14457Y16292*
X14443Y16300*
X14430Y16309*
X14417Y16318*
X14406Y16327*
X14395Y16336*
X14386Y16347*
X14377Y16358*
X14370Y16369*
X14363Y16380*
X14357Y16392*
X14352Y16404*
X14348Y16417*
X14345Y16430*
X14343Y16443*
X14342Y16457*
X14341Y16471*
X14342Y16486*
X14343Y16501*
X14346Y16516*
X14350Y16531*
X14355Y16545*
X14361Y16559*
X14368Y16573*
X14376Y16587*
X14386Y16599*
X14395Y16611*
X14407Y16623*
X14419Y16634*
X14433Y16643*
X14447Y16653*
X14463Y16661*
X14479Y16668*
X14496Y16675*
X14514Y16680*
X14531Y16685*
X14550Y16689*
X14569Y16692*
X14588Y16695*
X14608*
X14629Y16696*
X14651Y16695*
X14673*
X14694Y16692*
X14715Y16689*
X14734Y16685*
X14753Y16679*
X14771Y16674*
X14789Y16667*
X14806Y16659*
X14822Y16651*
X14837Y16641*
X14851Y16631*
X14863Y16619*
X14875Y16607*
X14887Y16595*
X14896Y16580*
X14905Y16566*
X14912Y16551*
X14919Y16535*
X14925Y16519*
X14929Y16503*
X14933Y16487*
X14935Y16469*
X14936Y16451*
X14832Y16443*
X14830Y16463*
X14826Y16480*
X14820Y16496*
X14814Y16511*
X14806Y16526*
X14797Y16539*
X14787Y16551*
X14775Y16561*
X14763Y16571*
X14748Y16579*
X14733Y16585*
X14716Y16591*
X14697Y16595*
X14677Y16599*
X14656Y16600*
X14633Y16601*
X14609Y16600*
X14587Y16599*
X14567Y16596*
X14548Y16592*
X14531Y16587*
X14515Y16581*
X14502Y16573*
X14490Y16565*
X14479Y16555*
X14471Y16546*
X14463Y16535*
X14456Y16525*
X14451Y16514*
X14448Y16503*
X14446Y16491*
X14445Y16478*
X14446Y16467*
X14447Y16457*
X14450Y16447*
X14453Y16438*
X14458Y16429*
X14463Y16420*
X14469Y16413*
X14477Y16405*
X14487Y16399*
X14499Y16391*
X14515Y16383*
X14533Y16376*
X14555Y16369*
X14580Y16362*
X14609Y16355*
X14640Y16347*
X14671Y16339*
X14701Y16332*
X14727Y16326*
X14751Y16319*
X14773Y16312*
X14791Y16307*
X14807Y16300*
X14821Y16295*
X14839Y16287*
X14855Y16277*
X14870Y16267*
X14883Y16257*
X14896Y16247*
X14907Y16235*
X14918Y16223*
X14927Y16211*
X14935Y16199*
X14942Y16185*
X14947Y16171*
X14952Y16157*
X14956Y16142*
X14959Y16127*
X14960Y16111*
X14961Y16095*
X14960Y16079*
X14959Y16063*
X14955Y16047*
X14951Y16031*
X14947Y16016*
X14940Y16001*
X14932Y15987*
X14923Y15971*
X14914Y15958*
X14903Y15944*
X14891Y15932*
X14878Y15920*
X14864Y15910*
X14849Y15899*
X14833Y15891*
X14816Y15882*
X14799Y15875*
X14780Y15867*
X14762Y15863*
X14742Y15858*
X14722Y15855*
X14702Y15851*
X14680*
X14659Y15850*
X14631Y15851*
X14606*
X14581Y15855*
X14557Y15858*
X14535Y15863*
X14513Y15868*
X14492Y15875*
X14473Y15882*
X14455Y15891*
X14438Y15900*
X14422Y15911*
X14407Y15923*
X14392Y15935*
X14379Y15949*
X14367Y15963*
X14355Y15979*
X14346Y15996*
X14337Y16013*
X14329Y16031*
X14323Y16049*
X14318Y16067*
X14315Y16087*
X14312Y16107*
X14311Y16127*
X14860Y14655D02*
X14759D01*
Y15295*
X14740Y15279*
X14718Y15261*
X14692Y15243*
X14664Y15227*
X14635Y15210*
X14608Y15196*
X14582Y15184*
X14558Y15175*
Y15271*
X14599Y15292*
X14638Y15315*
X14673Y15340*
X14706Y15367*
X14721Y15382*
X14735Y15395*
X14748Y15409*
X14760Y15423*
X14770Y15437*
X14780Y15451*
X14788Y15463*
X14795Y15477*
X14860*
Y14655*
X14961Y0D02*
X2913D01*
X0Y2362*
Y18110*
X19685*
Y6299*
X14961Y0*
X15439Y14655D02*
Y14851D01*
X15084*
Y14943*
X15458Y15474*
X15540*
Y14943*
X15650*
Y14851*
X15540*
Y14655*
X15439*
Y14943D02*
Y15313D01*
X15183Y14943*
X15439*
G54D11*
X1893Y13134D02*
Y16617D01*
X9667Y10801D02*
X9457Y10591D01*
X9667Y11195D02*
X9457Y11405D01*
X10060Y10801D02*
X10270Y10591D01*
X10060Y11195D02*
X10270Y11405D01*
X10714Y5758D02*
X11333D01*
X11667Y5424*
Y4919*
X12147Y4439*
X13620*
X14076Y3984*
Y3091*
X14279Y2888*
Y1536*
X11295Y4228D02*
X11088Y4435D01*
Y4970*
X12930Y1536D02*
Y2514D01*
X12749Y2695*
Y3118*
G54D12*
X3179Y1720D02*
X2887Y1427D01*
X3179Y1720D02*
X3472Y1427D01*
X3179Y1720D02*
X3472Y2012D01*
X3179Y1720D02*
X2887Y2012D01*
X3613Y5437D02*
X4126D01*
X4280Y5592*
X4748*
X4665Y2282D02*
Y2528D01*
X4698Y2561*
Y2571*
X4737Y2611*
Y2926*
X5101*
X5146Y2880*
X5687*
X4737Y3789D02*
Y2926D01*
X5687Y2880D02*
Y3380D01*
X8810Y1544D02*
Y1830D01*
X8809*
Y2106*
G54D13*
X499Y14194D02*
X956Y13737D01*
Y11103*
Y10552D02*
X1396D01*
X1424Y10524*
X1864*
X1878Y12322D02*
X2410D01*
X2443Y12354*
X2975*
X1878Y12873D02*
Y13119D01*
X1893Y13134*
X2353Y7281D02*
X2186Y7229D01*
X2353Y7773D02*
X2220Y7906D01*
X2504Y10898D02*
X2336D01*
X2651Y10750D02*
Y10583D01*
Y11046D02*
Y11213D01*
X2799Y10898D02*
X2966D01*
X2958Y16117D02*
X3196Y15879D01*
Y15027*
X3066Y4536D02*
X2898D01*
X3196Y14475D02*
X3688D01*
X3759Y14405*
X4252*
X3213Y3984D02*
X3778D01*
X4157Y4363*
X6273*
X6432Y4523*
Y5089*
X3213Y4467D02*
Y4299D01*
Y4604D02*
Y4772D01*
X3361Y4536D02*
X3528D01*
X3475Y7281D02*
X3642Y7229D01*
X3475Y7773D02*
X3608Y7906D01*
X3615Y12728D02*
X3448D01*
X3763Y11980D02*
Y11656D01*
X3757Y11650*
Y8433*
X4818Y7372*
X5724*
X3763Y12581D02*
Y12414D01*
Y12876D02*
Y13043D01*
X3910Y12728D02*
X4078D01*
X4117Y2926D02*
X3950D01*
X4186Y2778D02*
Y2611D01*
Y3073D02*
Y3241D01*
X4255Y2926D02*
X4422D01*
X4600Y5040D02*
X4433D01*
X4637Y915D02*
X4505Y1048D01*
X4665Y1730D02*
X4921D01*
X5070Y1880*
X5687*
X4748Y4972D02*
Y4804D01*
Y5109D02*
Y5277D01*
Y5592D02*
X5182D01*
X5191Y5600*
X5724*
X4891Y14779D02*
X4724D01*
X4895Y5040D02*
X5063D01*
X5035Y9085D02*
X4868D01*
X5039Y14031D02*
Y13485D01*
X4707Y13154*
Y10771*
X3977Y10041*
Y8568*
X4976Y7569*
X5724*
X5039Y14632D02*
Y14464D01*
Y14927D02*
Y15094D01*
X5104Y8937D02*
Y8770D01*
Y9233D02*
Y9400D01*
X5173Y9085D02*
X5340D01*
X5187Y14779D02*
X5354D01*
X5441Y2380D02*
X5274D01*
X5478Y5787D02*
X5310Y5773D01*
X5478Y5807D02*
X5310Y5833D01*
X5478Y6378D02*
X5310Y6352D01*
X5478Y6398D02*
X5310Y6412D01*
X5687Y2297D02*
Y2130D01*
Y2463D02*
Y2630D01*
Y3855D02*
Y3380D01*
X5720Y226D02*
X5887Y197D01*
X5720Y915D02*
X5853Y1048D01*
X5724Y5600D02*
Y5413D01*
X6048Y5089*
X6235*
X5724Y5797D02*
X5170D01*
X5069Y5898*
X5724Y6388D02*
X5137D01*
X5013Y6264*
X5724Y6585D02*
X4771D01*
X4713Y6527*
X2914*
X5724Y6781D02*
X3987D01*
X3741Y7027*
X1103*
X5724Y7175D02*
X4596D01*
X2651Y9121*
Y10150*
X5724Y7766D02*
X5197D01*
X4317Y8646*
Y9870*
X5069Y10622*
Y12589*
X5664Y13185*
X7936*
X8180Y13429*
X5933Y2380D02*
X6101D01*
X5970Y5787D02*
X6137Y5775D01*
X5970Y5807D02*
X6137Y5833D01*
X5970Y6378D02*
X6137Y6352D01*
X5970Y6398D02*
X6137Y6423D01*
X6235Y8278D02*
Y8751D01*
X5901Y9085*
X5655*
X6422Y8031D02*
X6408Y7864D01*
X6422Y8524D02*
X6408Y8691D01*
X6432Y8278D02*
Y8948D01*
X6442Y8031D02*
X6468Y7864D01*
X6442Y8524D02*
X6457Y8691D01*
X6571Y15581D02*
X6439Y15448D01*
X6571Y16703D02*
X6439Y16836D01*
X6774Y4263D02*
X6606D01*
X6788Y15581D02*
X6921Y15448D01*
X6788Y16703D02*
X6921Y16836D01*
X6826Y8278D02*
Y9467D01*
X6020Y10272*
Y11733*
X6285Y11998*
X6843Y4116D02*
Y3948D01*
Y4411D02*
Y4578D01*
X6911Y4263D02*
X7079D01*
X7242Y6807D02*
Y6680D01*
X7280Y6642*
Y6074*
X7242Y6807D02*
X7115D01*
X6235Y7686*
Y8278*
X7280Y6074D02*
X7210Y6004D01*
X6597*
X6193Y5600*
X5724*
X7364Y11498D02*
X6530D01*
X6325Y11294*
Y10570*
X7810Y9085*
Y8278*
X7394Y4263D02*
Y4643D01*
X7417Y4665*
Y5089*
X7449Y2297D02*
X7316Y2165D01*
X7449Y2463D02*
X7316Y2595D01*
X7449Y2797D02*
X7316Y2665D01*
X7449Y2963D02*
X7316Y3095D01*
X7571Y15581D02*
X7439Y15448D01*
X7571Y16703D02*
X7439Y16836D01*
X7604Y4842D02*
X7589Y4675D01*
X7604Y5335D02*
X7578Y5502D01*
X7613Y5089D02*
Y4618D01*
X7766Y4466*
X7623Y4842D02*
X7649Y4675D01*
X7623Y5335D02*
X7638Y5502D01*
X7788Y15581D02*
X7921Y15448D01*
X7788Y16703D02*
X7921Y16836D01*
X7810Y5089D02*
Y5818D01*
X7643Y5985*
X7419*
X7330Y6074*
X7280*
X7941Y2297D02*
X8074Y2165D01*
X7941Y2463D02*
X8074Y2595D01*
X7941Y2797D02*
X8074Y2665D01*
X7941Y2963D02*
X8074Y3095D01*
X8007Y8278D02*
Y9477D01*
X7163Y10321*
X8071Y15581D02*
X7939Y15448D01*
X8071Y16703D02*
X7939Y16836D01*
X8204Y8278D02*
Y9663D01*
X7864Y10003*
X8288Y15581D02*
X8421Y15448D01*
X8288Y16703D02*
X8421Y16836D01*
X8401Y5089D02*
X8757D01*
X9387Y4458*
X10128*
X10327Y4259*
Y3872*
X8401Y11535D02*
Y8278D01*
X8662Y2657D02*
X8494D01*
X8667Y7559D02*
X8499Y7533D01*
X8667Y7579D02*
X8499Y7593D01*
X8680Y13307D02*
X8239Y12866D01*
X5881*
X5489Y12474*
Y10283*
X6629Y9143*
Y8278*
X8809Y2588D02*
Y2421D01*
Y2726D02*
Y2893D01*
X8913Y5600D02*
Y5413D01*
X9356Y4970*
X10339*
X8913Y6388D02*
X16690D01*
X18330Y8027*
Y9341*
X8913Y6781D02*
X11938D01*
X13374Y8217*
Y9389*
X8913Y7372D02*
X10737D01*
X11215Y7850*
Y8543*
X10073Y9685*
X9435*
X8864Y10256*
X8913Y7569D02*
X9449D01*
X8913Y7766D02*
X7920D01*
X7311Y7157*
Y6877*
X7242Y6807*
X8938Y9038D02*
Y8713D01*
X8913Y8688*
Y7766*
X8957Y2657D02*
X9124D01*
X9159Y7559D02*
X9326Y7544D01*
X9159Y7579D02*
X9326Y7605D01*
X9253Y3394D02*
X9085D01*
X9400Y3325D02*
Y3158D01*
Y3463D02*
Y3630D01*
X9421Y9038D02*
X9253D01*
X9490Y8891D02*
Y8723D01*
Y9186D02*
Y9353D01*
X9548Y3394D02*
X9715D01*
X9559Y9038D02*
X9726D01*
X9698Y1034D02*
X9176D01*
X9135Y993*
X8810*
X9698Y1536D02*
Y1034D01*
X10180Y3124D02*
X10012D01*
X10327Y2976D02*
Y2809D01*
Y3271D02*
Y3439D01*
X10475Y3124D02*
X10642D01*
X10588Y11442D02*
X10421D01*
X10736Y11373D02*
Y11206D01*
Y11511D02*
Y11678D01*
Y11993D02*
X10351D01*
X10346Y11998*
X9864*
X10883Y11442D02*
X11051D01*
X10940Y4970D02*
X10773D01*
X11088Y4823D02*
Y4655D01*
Y5118D02*
Y5285D01*
X11158Y1536D02*
Y3129D01*
X11115Y3173*
Y3498*
X11235Y4970D02*
X11402D01*
X11736Y2543D02*
Y2354D01*
X11997Y2093*
X12076*
Y1542D02*
X12401D01*
X12407Y1536*
X12930*
X12586Y9763D02*
Y10783D01*
X12642Y10838*
Y11163*
X13226Y10137D02*
X13059D01*
X13374Y9990D02*
Y9822D01*
Y10285D02*
Y10452D01*
X13521Y10137D02*
X13688D01*
X15033Y13082D02*
X13193Y11242D01*
Y11163*
X15126Y9755D02*
Y10861D01*
X15132Y10867*
Y11192*
X15683D02*
X16430D01*
X15765Y10129D02*
X15598D01*
X15913Y9381D02*
Y7226D01*
X15272Y6585*
X8913*
X15913Y9982D02*
Y9814D01*
Y10277D02*
Y10444D01*
X16061Y10129D02*
X16228D01*
X17542Y9715D02*
Y10793D01*
X17594Y10845*
Y11170*
X18182Y10089D02*
X18015D01*
X18330Y9941D02*
Y9774D01*
Y10236D02*
Y10404D01*
X18477Y10089D02*
X18645D01*
X18596Y12956D02*
Y11303D01*
X18463Y11170*
X18145*
G54D14*
X893Y16617D02*
X499Y16223D01*
Y14194*
X1871Y1720D02*
X3179D01*
X2389Y16117D02*
X2958D01*
X3179Y967D02*
Y1720D01*
Y3137D02*
Y3704D01*
X3213Y3738*
Y3984*
X3923Y1720D02*
X3179D01*
X4665Y2282D02*
X3697D01*
X3568Y2411*
X2070*
X1762Y2719*
Y3137*
X6894Y1880D02*
X6783Y1769D01*
Y1259*
X7471Y571*
X6894Y1880D02*
X7695D01*
X7471Y571D02*
X7668D01*
X7695Y1880D02*
X8225D01*
X8450Y2106*
X8809*
X7695Y3380D02*
X7015D01*
X6783Y3148*
Y1991*
X6894Y1880*
X8180Y13429D02*
Y14544D01*
X8680D02*
Y13307D01*
Y16142D02*
X9073D01*
X9864Y15352*
Y15237*
X16324Y13082D02*
X15033D01*
X16430Y11192D02*
X17820Y12582D01*
X17324Y13082D02*
X17558Y13316D01*
X17660*
X17665Y13322*
X18230*
X18596Y12956*
G54D15*
X763Y17556D03*
X996Y2851D03*
X1045Y4866D03*
X1464Y7976D03*
X1593Y9394D03*
X1931Y11618D03*
X2221Y3802D03*
X2318Y8363D03*
X2366Y15324D03*
X2455Y17484D03*
X2479Y1208D03*
X2753Y15614D03*
X3301Y466D03*
X3526Y13729D03*
X3613Y5437D03*
X4042Y6042D03*
X4058Y15131D03*
X4252Y13487D03*
X4737Y3789D03*
X5045Y9880D03*
X5104Y8503D03*
X5235Y15211D03*
X5557Y1320D03*
X5687Y3855D03*
X6266Y2384D03*
X6285Y11998D02*
X6864D01*
X6314Y563D03*
X6475Y6558D03*
X6894Y1880D03*
X6975Y7562D03*
X7163Y10321D02*
Y10699D01*
X6864Y10998*
X7291Y5715D03*
X7864Y10003D02*
Y10998D01*
Y11998D02*
X7364Y11498D01*
X7926Y6767D03*
X8038Y4074D03*
X8264Y2610D03*
X8864Y11998D02*
X8401Y11535D01*
X8864Y10256D02*
Y10998D01*
X9490Y8402D03*
X9538Y2692D03*
X9795Y5801D03*
X9864Y11998D02*
Y13551D01*
X9876Y13563*
Y14006*
X9864Y15237D02*
Y14588D01*
X9876Y14576*
Y14006*
D03*
X9888Y10238D03*
X10311Y8056D03*
X10332Y2530D03*
X10730Y10345D03*
X11295Y4228D03*
X11736Y2543D03*
X11752Y3921D03*
X12373Y12601D03*
X13872Y14116D03*
X14086Y5483D02*
X13734D01*
X13731Y5480*
X12749*
X14086Y5483D03*
X14162Y7444D03*
X14178Y11167D03*
X14227Y9346D03*
X15339Y3593D03*
X15460Y17459D03*
X16273Y5075D03*
Y10683D03*
X16322Y8508D03*
X17031Y7460D03*
X17127Y15888D03*
X17627Y8556D03*
X18175Y6574D03*
X18529Y17314D03*
X19126Y10103D03*
G54D16*
X9400Y3945D02*
X9003D01*
X8676Y4272*
G54D17*
X956Y10552D03*
Y11103D03*
X1878Y12322D03*
Y12873D03*
X3196Y14475D03*
Y15027D03*
X3213Y3984D03*
Y4536D03*
X4665Y1730D03*
Y2282D03*
X4748Y5040D03*
Y5592D03*
X8809Y2106D03*
Y2657D03*
X8810Y993D03*
Y1544D03*
X9400Y3394D03*
Y3945D03*
X10736Y11442D03*
Y11993D03*
X12076Y1542D03*
Y2093D03*
G54D18*
X1762Y3137D03*
X3179Y1720D03*
Y3137D03*
X8676Y3272D03*
Y4272D03*
G54D19*
X9698Y1536D03*
X11158D03*
X12930D03*
X14279D03*
G54D20*
X1864Y10524D03*
X2651Y10150D03*
Y10898D03*
X2975Y12354D03*
X3763Y11980D03*
Y12728D03*
X4252Y14405D03*
X5039Y14031D03*
Y14779D03*
X10327Y3124D03*
Y3872D03*
X10339Y4970D03*
X10714Y5758D03*
X11088Y4970D03*
X11115Y3498D03*
X12586Y9763D03*
X13374Y9389D03*
Y10137D03*
X15126Y9755D03*
X15913Y9381D03*
Y10129D03*
X17542Y9715D03*
X18330Y9341D03*
Y10089D03*
G54D21*
X5179Y571D03*
X7668D03*
G54D22*
X5687Y1880D03*
Y2380D03*
Y2880D03*
Y3380D03*
X7695Y1880D03*
Y2380D03*
Y2880D03*
Y3380D03*
G54D23*
X1103Y7027D03*
X2914Y6527D03*
Y7527D03*
G54D24*
X6680Y14544D03*
Y16142D03*
X7180Y14544D03*
Y16142D03*
X7680Y14544D03*
Y16142D03*
X8180Y14544D03*
Y16142D03*
X8680Y14544D03*
Y16142D03*
G54D25*
X5724Y5600D03*
Y5797D03*
Y5994D03*
Y6191D03*
Y6388D03*
Y6585D03*
Y6781D03*
Y6978D03*
Y7175D03*
Y7372D03*
Y7569D03*
Y7766D03*
X8913Y5600D03*
Y5797D03*
Y5994D03*
Y6191D03*
Y6388D03*
Y6585D03*
Y6781D03*
Y6978D03*
Y7175D03*
Y7372D03*
Y7569D03*
Y7766D03*
G54D26*
X6235Y5089D03*
Y8278D03*
X6432Y5089D03*
Y8278D03*
X6629Y5089D03*
Y8278D03*
X6826Y5089D03*
Y8278D03*
X7023Y5089D03*
Y8278D03*
X7220Y5089D03*
Y8278D03*
X7417Y5089D03*
Y8278D03*
X7613Y5089D03*
Y8278D03*
X7810Y5089D03*
Y8278D03*
X8007Y5089D03*
Y8278D03*
X8204Y5089D03*
Y8278D03*
X8401Y5089D03*
Y8278D03*
G54D27*
X9864Y10998D03*
G54D28*
X6864D03*
Y11998D03*
X7864Y10998D03*
Y11998D03*
X8864D03*
Y10998D03*
X9864Y11998D03*
G54D29*
X893Y16617D03*
X1389Y16117D03*
X1893Y16617D03*
X2389Y16117D03*
X16324Y13082D03*
X16820Y12582D03*
X17324Y13082D03*
X17820Y12582D03*
G54D70*
X4186Y2926D03*
X4737D03*
X5104Y9085D03*
X5655D03*
X6843Y4263D03*
X7394D03*
X8938Y9038D03*
X9490D03*
X12642Y11163D03*
X13193D03*
X15132Y11192D03*
X15683D03*
X17594Y11170D03*
X18145D03*
G54D71*
X12749Y3118D03*
Y5480D03*
M02*
