*
G04 Job   : G:\2014\ELFES\PCB\PCB\PCB.pcb*
G04 User  : LUTIN2:Alexis*
G04 Layer : SoldermaskTop.gdo*
G04 Date  : Fri Jun 20 01:19:51 2014*
G04 Mentor Graphics Example Gerber Output Definition*
%ICAS*%
%MOIN*%
%FSLAX24Y24*%
%OFA0.0000B0.0000*%
G90*
G74*
%AMVB_RECTANGLE*
21,1,$1,$2,0,0,$3*
%
%ADD11C,0.05709*%
%ADD23C,0.06102*%
%ADD22C,0.06496*%
%ADD18C,0.07874*%
%ADD15VB_RECTANGLE,0.04232X0.04232X0.00000*%
%ADD21VB_RECTANGLE,0.06496X0.06496X180.00000*%
%ADD17VB_RECTANGLE,0.03228X0.06496X270.00000*%
%ADD70VB_RECTANGLE,0.03740X0.12795X180.00000*%
%ADD10VB_RECTANGLE,0.04528X0.02953X180.00000*%
%ADD13VB_RECTANGLE,0.04528X0.02953X270.00000*%
%ADD71VB_RECTANGLE,0.06201X0.01476X0.00000*%
%ADD20VB_RECTANGLE,0.06201X0.01476X90.00000*%
%ADD19VB_RECTANGLE,0.06496X0.12795X90.00000*%
%ADD14VB_RECTANGLE,0.06496X0.15551X270.00000*%
%ADD12VB_RECTANGLE,0.08465X0.12402X0.00000*%
%ADD16VB_RECTANGLE,0.08465X0.12402X270.00000*%
G01*
G36*
X463Y5702D02*
X1585D01*
Y6352*
X463*
Y5702*
G37*
G54D10*
X956Y10552D03*
Y11103D03*
X1878Y12322D03*
Y12873D03*
X3196Y14475D03*
Y15027D03*
X3213Y3984D03*
Y4536D03*
X4665Y1730D03*
Y2282D03*
X4748Y5040D03*
Y5592D03*
X8809Y2106D03*
Y2657D03*
X8810Y993D03*
Y1544D03*
X9400Y3394D03*
Y3945D03*
X10736Y11442D03*
Y11993D03*
X12076Y1542D03*
Y2093D03*
G54D11*
X1762Y3137D03*
X3179Y1720D03*
Y3137D03*
X8676Y3272D03*
Y4272D03*
G54D12*
X9698Y1536D03*
X11158D03*
X12930D03*
X14279D03*
G54D13*
X4186Y2926D03*
X4737D03*
X5104Y9085D03*
X5655D03*
X6843Y4263D03*
X7394D03*
X8938Y9038D03*
X9490D03*
X12642Y11163D03*
X13193D03*
X15132Y11192D03*
X15683D03*
X17594Y11170D03*
X18145D03*
G54D14*
X12749Y3118D03*
Y5480D03*
G54D15*
X1864Y10524D03*
X2651Y10150D03*
Y10898D03*
X2975Y12354D03*
X3763Y11980D03*
Y12728D03*
X4252Y14405D03*
X5039Y14031D03*
Y14779D03*
X10327Y3124D03*
Y3872D03*
X10339Y4970D03*
X10714Y5758D03*
X11088Y4970D03*
X11115Y3498D03*
X12586Y9763D03*
X13374Y9389D03*
Y10137D03*
X15126Y9755D03*
X15913Y9381D03*
Y10129D03*
X17542Y9715D03*
X18330Y9341D03*
Y10089D03*
G54D16*
X5179Y571D03*
X7668D03*
G54D17*
X5687Y1880D03*
Y2380D03*
Y2880D03*
Y3380D03*
X7695Y1880D03*
Y2380D03*
Y2880D03*
Y3380D03*
G54D18*
X2008Y5474D03*
G54D19*
X1103Y7027D03*
X2914Y6527D03*
Y7527D03*
G54D20*
X6235Y5089D03*
Y8278D03*
X6432Y5089D03*
Y8278D03*
X6629Y5089D03*
Y8278D03*
X6826Y5089D03*
Y8278D03*
X7023Y5089D03*
Y8278D03*
X7220Y5089D03*
Y8278D03*
X7417Y5089D03*
Y8278D03*
X7613Y5089D03*
Y8278D03*
X7810Y5089D03*
Y8278D03*
X8007Y5089D03*
Y8278D03*
X8204Y5089D03*
Y8278D03*
X8401Y5089D03*
Y8278D03*
G54D21*
X9864Y10998D03*
G54D22*
X6864D03*
Y11998D03*
X7864Y10998D03*
Y11998D03*
X8864D03*
Y10998D03*
X9864Y11998D03*
G54D23*
X893Y16617D03*
X1389Y16117D03*
X1893Y16617D03*
X2389Y16117D03*
X16324Y13082D03*
X16820Y12582D03*
X17324Y13082D03*
X17820Y12582D03*
G54D70*
X6680Y14544D03*
Y16142D03*
X7180Y14544D03*
Y16142D03*
X7680Y14544D03*
Y16142D03*
X8180Y14544D03*
Y16142D03*
X8680Y14544D03*
Y16142D03*
G54D71*
X5724Y5600D03*
Y5797D03*
Y5994D03*
Y6191D03*
Y6388D03*
Y6585D03*
Y6781D03*
Y6978D03*
Y7175D03*
Y7372D03*
Y7569D03*
Y7766D03*
X8913Y5600D03*
Y5797D03*
Y5994D03*
Y6191D03*
Y6388D03*
Y6585D03*
Y6781D03*
Y6978D03*
Y7175D03*
Y7372D03*
Y7569D03*
Y7766D03*
M02*
